<?xml version="1.0" encoding="UTF-8"?>
<svg version="1.1" xmlns="http://www.w3.org/2000/svg" width="594" height="420">
<path d="M0 0 C30.36 0 60.72 0 92 0 C92.99224286 4.9612143 92.96748148 6.07057264 91.375 10.54296875 C91.00165527 11.60757324 90.62831055 12.67217773 90.24365234 13.76904297 C89.83324707 14.89713379 89.4228418 16.02522461 89 17.1875 C88.58572754 18.3542627 88.17145508 19.52102539 87.74462891 20.72314453 C85.13352789 28.02558069 82.40454686 35.27661286 79.53637695 42.48168945 C76.92503125 49.06983517 74.59457473 55.74752872 72.30810547 62.45458984 C71.89842529 63.64882568 71.89842529 63.64882568 71.48046875 64.8671875 C71.24223389 65.56956543 71.00399902 66.27194336 70.75854492 66.99560547 C69.97007649 69.0790705 69.02874806 71.02553439 68 73 C64.86559667 72.42308747 63.23714281 71.60867612 61.01171875 69.33984375 C60.19864258 68.5190332 60.19864258 68.5190332 59.36914062 67.68164062 C58.81419922 67.10607422 58.25925781 66.53050781 57.6875 65.9375 C57.14416016 65.38900391 56.60082031 64.84050781 56.04101562 64.27539062 C53.11325192 61.29232087 50.31110277 58.23212922 47.58203125 55.06640625 C43.91720502 50.83783888 39.99308697 46.91659105 36 43 C31.30889873 38.39876657 26.81476214 33.72595737 22.52685547 28.74511719 C20.25879444 26.15284021 17.78588309 23.80863676 15.28515625 21.4453125 C14 20 14 20 14 18 C13.34 18 12.68 18 12 18 C10.484375 16.4609375 10.484375 16.4609375 8.75 14.375 C6.45499775 11.64606875 4.13438291 9.1504891 1.5 6.75 C0.675 5.8425 -0.15 4.935 -1 4 C-0.67 2.68 -0.34 1.36 0 0 Z " fill="#653D6D" transform="translate(234,135)"/>
<path d="M0 0 C1.17208008 -0.00217529 2.34416016 -0.00435059 3.55175781 -0.0065918 C5.47906738 0.00053833 5.47906738 0.00053833 7.4453125 0.0078125 C8.76112305 0.01192139 10.07693359 0.01603027 11.43261719 0.02026367 C15.8120505 0.04076191 20.19111782 0.08352896 24.5703125 0.1328125 C25.75336975 0.1457132 25.75336975 0.1457132 26.96032715 0.15887451 C31.79741406 0.21489926 36.63349421 0.29310156 41.4697876 0.39727783 C43.03654936 0.42929574 44.60341836 0.45643784 46.17034912 0.47869873 C48.37196989 0.51173854 50.57233107 0.56383436 52.7734375 0.62109375 C54.03833008 0.64727783 55.30322266 0.67346191 56.60644531 0.70043945 C57.58452148 0.84312256 58.56259766 0.98580566 59.5703125 1.1328125 C60.5603125 2.6178125 60.5603125 2.6178125 61.5703125 4.1328125 C58.40791668 7.32457342 55.23962491 10.5104206 52.0703125 13.6953125 C51.1834375 14.59056641 50.2965625 15.48582031 49.3828125 16.40820312 C44.80733662 21.00050061 40.18157405 25.44238374 35.25878906 29.66040039 C32.40785822 32.14651431 29.84081034 34.89266835 27.234375 37.62890625 C25.5703125 39.1328125 25.5703125 39.1328125 23.5703125 39.1328125 C23.30476563 39.72449219 23.03921875 40.31617188 22.765625 40.92578125 C19.60903853 46.75411901 13.59154618 51.04162732 8.6171875 55.29296875 C5.74544945 57.87424475 3.13594937 60.68649693 0.52734375 63.53125 C-1.79107828 65.42856144 -3.51693851 65.64291797 -6.4296875 66.1328125 C-6.45281409 57.67513916 -6.4706042 49.21747894 -6.48149967 40.75978184 C-6.48672781 36.83292592 -6.49382419 32.90609156 -6.50512695 28.97924805 C-6.5159583 25.19266993 -6.52196486 21.4061126 -6.52456474 17.61952019 C-6.52641855 16.17176931 -6.53003831 14.72401962 -6.53541756 13.27627754 C-6.54263117 11.25524115 -6.54309558 9.23418402 -6.54321289 7.21313477 C-6.5454335 6.06063736 -6.54765411 4.90813995 -6.54994202 3.72071838 C-6.33357598 -0.93553036 -4.13150302 0.00452945 0 0 Z " fill="#663E6D" transform="translate(337.4296875,62.8671875)"/>
<path d="M0 0 C0.886875 -0.01417969 1.77375 -0.02835937 2.6875 -0.04296875 C5 0.1875 5 0.1875 7 2.1875 C7.85648373 4.38166887 8.63897985 6.6049714 9.3828125 8.83984375 C9.71150833 9.8237484 9.71150833 9.8237484 10.04684448 10.82752991 C10.50857492 12.2143805 10.96733449 13.60222323 11.42333984 14.9909668 C12.12198518 17.1158307 12.83172864 19.23674504 13.54296875 21.35742188 C13.99025132 22.70550772 14.43688764 24.05380819 14.8828125 25.40234375 C15.28902832 26.63073975 15.69524414 27.85913574 16.11376953 29.12475586 C17 32.1875 17 32.1875 17 35.1875 C17.66 35.1875 18.32 35.1875 19 35.1875 C19.35771484 33.34478516 19.35771484 33.34478516 19.72265625 31.46484375 C21.08230756 25.36016484 23.23827292 19.59447262 25.4375 13.75 C26.03014648 12.11901367 26.03014648 12.11901367 26.63476562 10.45507812 C27.02212891 9.41931641 27.40949219 8.38355469 27.80859375 7.31640625 C28.15720459 6.37869385 28.50581543 5.44098145 28.86499023 4.47485352 C30 2.1875 30 2.1875 33 0.1875 C36.5 -0.25 36.5 -0.25 40 0.1875 C42.62850948 3.73971705 44.00147942 7.61643679 45.4453125 11.765625 C45.88230469 13.00828125 46.31929687 14.2509375 46.76953125 15.53125 C47.22174227 16.8331986 47.67356067 18.13528362 48.125 19.4375 C49.01985326 22.00649298 49.91924772 24.57379357 50.8203125 27.140625 C51.41223389 28.84460449 51.41223389 28.84460449 52.01611328 30.58300781 C52.75518134 33.07988024 52.75518134 33.07988024 54 34.1875 C54.29132813 33.22972656 54.58265625 32.27195312 54.8828125 31.28515625 C57.19907808 23.73311546 59.60926335 16.21697613 62.1875 8.75 C62.43709473 8.01080322 62.68668945 7.27160645 62.94384766 6.51000977 C64.76606368 1.30446816 64.76606368 1.30446816 67 0.1875 C68.70702735 0.11753986 70.41668003 0.10309846 72.125 0.125 C73.03507812 0.13402344 73.94515625 0.14304687 74.8828125 0.15234375 C75.93082031 0.16974609 75.93082031 0.16974609 77 0.1875 C78.56412955 4.94391735 77.14821116 8.27331662 75.3125 12.6875 C74.7417528 14.12900883 74.17407247 15.57173551 73.609375 17.015625 C73.33029297 17.72654297 73.05121094 18.43746094 72.76367188 19.16992188 C71.73394954 21.89039035 70.88622656 24.64839078 70.0625 27.4375 C68.30676069 33.32964209 66.33621486 39.1332133 64.3125 44.9375 C63.84759155 46.27989746 63.84759155 46.27989746 63.37329102 47.64941406 C62.93521118 48.89803223 62.93521118 48.89803223 62.48828125 50.171875 C62.22571533 50.92178711 61.96314941 51.67169922 61.69262695 52.44433594 C61 54.1875 61 54.1875 60 55.1875 C57.6015625 55.4609375 57.6015625 55.4609375 54.625 55.5625 C53.64789063 55.61148438 52.67078125 55.66046875 51.6640625 55.7109375 C49 55.1875 49 55.1875 47.26171875 53.02734375 C45.98892831 50.16258012 45.0357709 47.39236545 44.1875 44.375 C41.8625294 36.48638379 38.95349642 28.85674569 36 21.1875 C33.90901853 24.32397221 33.03867632 26.90569638 31.94140625 30.5 C31.55533203 31.74007813 31.16925781 32.98015625 30.77148438 34.2578125 C30.16461332 36.22516606 29.56072462 38.19333763 28.96166992 40.16308594 C28.37976686 42.06957472 27.78573748 43.97234895 27.19140625 45.875 C26.84279541 47.01324219 26.49418457 48.15148437 26.13500977 49.32421875 C25.05206944 52.0561448 24.34645078 53.4659965 22 55.1875 C19.30078125 55.48046875 19.30078125 55.48046875 16.3125 55.375 C15.31863281 55.34792969 14.32476562 55.32085937 13.30078125 55.29296875 C12.54152344 55.25816406 11.78226563 55.22335937 11 55.1875 C8.5512944 49.49665346 6.49213293 43.73726914 4.6875 37.8125 C2.70802496 31.32168157 0.55929586 24.90322212 -1.6875 18.5 C-2.13379761 17.22600342 -2.13379761 17.22600342 -2.58911133 15.92626953 C-3.7336106 12.68216798 -4.8826977 9.46879774 -6.20703125 6.29296875 C-7 4.1875 -7 4.1875 -7 1.1875 C-4.52224905 -0.05137548 -2.76346293 0.02008331 0 0 Z " fill="#3D2554" transform="translate(71,301.8125)"/>
<path d="M0 0 C5.7710222 4.7450627 9.30345954 8.91820176 10.8125 16.3125 C7.65009418 18.42077055 6.30592531 18.65067465 2.625 18.9375 C1.72394531 19.01226562 0.82289063 19.08703125 -0.10546875 19.1640625 C-0.79253906 19.21304687 -1.47960937 19.26203125 -2.1875 19.3125 C-2.455625 18.76980469 -2.72375 18.22710937 -3 17.66796875 C-5.59836325 12.92424636 -7.7282399 10.19639806 -13.00390625 8.640625 C-18.39564734 7.83041704 -24.43087127 8.57383498 -29.1875 11.3125 C-31.21687351 13.80309477 -31.20232323 15.51631946 -31.4375 18.75 C-30.06951967 22.64874395 -29.81018928 22.97676393 -26.375 24.8125 C-20.19698096 27.52939372 -13.73572176 29.63881473 -7.32104492 31.7265625 C0.89252561 34.45938798 6.62426201 37.73308352 11.0625 45.5 C12.83959394 52.16410228 12.59248836 58.44438879 9.15234375 64.4921875 C5.35621536 69.64960975 0.31252154 73.54288742 -5.9765625 74.92578125 C-17.41605303 76.30353011 -29.59331719 76.54191944 -39.1875 69.3125 C-43.95804319 64.91150593 -46.2474143 60.45610471 -48.1875 54.3125 C-43.84827412 51.1936814 -40.42349186 50.5700078 -35.1875 50.3125 C-33.1875 52.3125 -33.1875 52.3125 -32.25 55.6875 C-31.16004032 58.3188168 -30.3704777 59.20196399 -27.8984375 60.6953125 C-20.31373554 63.75055864 -13.84503725 64.05907647 -6.1875 61.1875 C-3.28478997 58.46620934 -2.72566317 56.21418295 -2.1875 52.3125 C-3.06056031 49.25678892 -4.28528657 47.93614983 -6.8828125 46.140625 C-13.74192792 42.35458996 -21.32415102 40.17807163 -28.78662109 37.89892578 C-35.69839408 35.72391 -40.91138146 33.22559234 -44.45703125 26.49609375 C-46.44684474 20.54793469 -46.16296605 13.6951688 -43.6875 7.9375 C-40.37516516 2.3391876 -35.49340303 -0.82767175 -29.5 -3.0625 C-19.79954695 -4.93384724 -8.82925718 -4.67431262 0 0 Z " fill="#3C2354" transform="translate(359.1875,282.6875)"/>
<path d="M0 0 C0.99 0.33 1.98 0.66 3 1 C3 22.78 3 44.56 3 67 C-17.79 67 -38.58 67 -60 67 C-59.67 65.68 -59.34 64.36 -59 63 C-57.67532254 62.3162955 -56.34136367 61.65035814 -55 61 C-54.31543806 59.67576544 -53.65107332 58.34101669 -53 57 C-50.50218795 53.65981732 -47.82963329 50.6594521 -44.5625 48.0625 C-41.76420024 45.81020995 -39.63595546 43.35653137 -37.3046875 40.63671875 C-34.15757975 37.03621412 -30.93132288 33.51335155 -27.6875 30 C-27.06431885 29.31639404 -26.4411377 28.63278809 -25.79907227 27.9284668 C-25.20924561 27.29207275 -24.61941895 26.65567871 -24.01171875 26 C-23.48022217 25.4225 -22.94872559 24.845 -22.40112305 24.25 C-21 23 -21 23 -19 23 C-18.7525 22.43796875 -18.505 21.8759375 -18.25 21.296875 C-16.78725133 18.60907431 -15.03195127 16.53594518 -13 14.25 C-11.948125 13.05117187 -11.948125 13.05117187 -10.875 11.828125 C-9 10 -9 10 -7 10 C-6.773125 9.46375 -6.54625 8.9275 -6.3125 8.375 C-4.56617944 5.21499137 -2.3597151 2.7323017 0 0 Z " fill="#653C6D" transform="translate(326,66)"/>
<path d="M0 0 C3.96 0 7.92 0 12 0 C13.20887291 2.41774581 13.12059343 3.93331064 13.11352539 6.63330078 C13.11344986 7.59414581 13.11337433 8.55499084 13.11329651 9.54495239 C13.10813522 10.58457123 13.10297394 11.62419006 13.09765625 12.6953125 C13.0962413 13.75789276 13.09482635 14.82047302 13.09336853 15.91525269 C13.08775834 19.31853009 13.07520409 22.72174238 13.0625 26.125 C13.05748631 28.42838447 13.05292318 30.73176997 13.04882812 33.03515625 C13.0377856 38.69012649 13.02103752 44.34505859 13 50 C14.28996948 48.88784176 15.57760969 47.77298145 16.86425781 46.65698242 C17.58156067 46.03643478 18.29886353 45.41588715 19.03790283 44.77653503 C21.23131546 42.79056082 23.01375946 40.70627718 24.75 38.3125 C30.61052614 30.30406258 30.61052614 30.30406258 34.9453125 29.35546875 C35.99460937 29.30003906 37.04390625 29.24460937 38.125 29.1875 C39.17945313 29.11917969 40.23390625 29.05085938 41.3203125 28.98046875 C44 29 44 29 46 30 C44.32191256 34.00984848 41.56372917 37.06488021 38.75 40.3125 C38.25781982 40.88701904 37.76563965 41.46153809 37.25854492 42.0534668 C35.84245774 43.7052962 34.42148088 45.35281277 33 47 C31.77046227 48.43718263 30.54119792 49.87459932 29.3125 51.3125 C28.549375 52.199375 27.78625 53.08625 27 54 C28.50006391 57.44779086 30.50409262 59.82360533 33.0625 62.5625 C36.43411667 66.25054671 39.73419095 69.9768225 42.9375 73.8125 C43.66839844 74.68519531 44.39929688 75.55789063 45.15234375 76.45703125 C46.94282018 78.92130219 48.01612994 81.13080825 49 84 C46.60225255 84.13572155 44.21224755 84.23436868 41.8125 84.3125 C41.13896484 84.35439453 40.46542969 84.39628906 39.77148438 84.43945312 C35.95047152 84.53264856 34.25607958 84.20690356 31.25390625 81.78125 C30.51011719 80.8634375 29.76632812 79.945625 29 79 C28.01386719 77.81470703 28.01386719 77.81470703 27.0078125 76.60546875 C26.38648438 75.80753906 25.76515625 75.00960937 25.125 74.1875 C21.55532239 69.66093162 17.84124799 65.29739619 14 61 C12.77237957 62.00354311 12.77237957 62.00354311 12.90234375 64.02539062 C12.91394531 64.89357422 12.92554688 65.76175781 12.9375 66.65625 C12.94523437 67.59597656 12.95296875 68.53570312 12.9609375 69.50390625 C12.97382813 70.49261719 12.98671875 71.48132813 13 72.5 C13.02539586 74.44786253 13.04646739 76.39578791 13.0625 78.34375 C13.07410156 79.21193359 13.08570313 80.08011719 13.09765625 80.97460938 C13 83 13 83 12 84 C9.98035801 84.07244053 7.95832876 84.08377188 5.9375 84.0625 C4.83277344 84.05347656 3.72804688 84.04445313 2.58984375 84.03515625 C1.73519531 84.02355469 0.88054687 84.01195312 0 84 C-1.02404908 79.78496978 -1.14188425 75.70796762 -1.12939453 71.39575195 C-1.13114685 70.64720947 -1.13289917 69.89866699 -1.13470459 69.12744141 C-1.13909001 66.66436414 -1.13619769 64.20135919 -1.1328125 61.73828125 C-1.13348628 60.02385952 -1.13445692 58.30943788 -1.13571167 56.59501648 C-1.13718397 53.00824063 -1.1350483 49.42148974 -1.13037109 45.8347168 C-1.12466115 41.23107841 -1.12796375 36.62749816 -1.13394356 32.02386189 C-1.13755076 28.4869289 -1.13641007 24.95000979 -1.13381577 21.4130764 C-1.13314761 19.71495749 -1.13397105 18.01683732 -1.13629532 16.31871986 C-1.13882584 13.95113389 -1.13497617 11.5836433 -1.12939453 9.21606445 C-1.13141876 8.51110336 -1.13344299 7.80614227 -1.13552856 7.07981873 C-1.11426732 2.22853464 -1.11426732 2.22853464 0 0 Z " fill="#442D5B" transform="translate(259,273)"/>
<path d="M0 0 C0.99 0 1.98 0 3 0 C3 33 3 66 3 100 C-2.66374514 100 -3.54958875 99.1430689 -8 96 C-10.64547299 94.55967936 -13.35216346 93.25091238 -16.0625 91.9375 C-18.10992096 90.93945357 -20.15342097 89.93752154 -22.18408203 88.90576172 C-23.7641237 88.11765274 -25.37801202 87.39813034 -26.99609375 86.69140625 C-29 85 -29 85 -29.27832031 81.82788086 C-28.9821773 77.75487533 -28.07577842 74.84042284 -26.55078125 71.0625 C-26.29628708 70.41990234 -26.04179291 69.77730469 -25.77958679 69.11523438 C-24.96838742 67.07214736 -24.14146205 65.03593661 -23.3125 63 C-22.24010903 60.33570277 -21.17477035 57.6686581 -20.11328125 55 C-19.84918457 54.33804123 -19.58508789 53.67608246 -19.31298828 52.99406433 C-17.03234094 47.21669113 -15.07531293 41.35930686 -13.15014648 35.45556641 C-11.25518478 29.7622342 -9.05605909 24.19486861 -6.86328125 18.61132812 C-4.857604 13.43982699 -3.11952306 8.26800505 -1.61767578 2.92700195 C-1 1 -1 1 0 0 Z " fill="#643C6C" transform="translate(326,147)"/>
<path d="M0 0 C6.52484727 6.70609303 8.39298965 15.34087223 8.28515625 24.4296875 C7.52485206 31.28284033 5.24973161 39.31780694 0 44 C-9.45658828 50.10046083 -18.47022587 51.5631765 -29.70703125 49.50390625 C-37.27080801 47.22317629 -41.85686112 42.72073993 -46.01953125 36.16015625 C-49.40854514 28.69352405 -49.14001837 17.97063241 -46.9375 10.1875 C-44.30094914 3.51641318 -39.88715887 -1.42019973 -33.375 -4.4375 C-21.30491735 -9.0579195 -10.60747546 -7.07165031 0 0 Z M-34 11 C-36.17527995 17.17723729 -36.1196223 25.90436345 -33.9375 32.0625 C-31.52406141 35.72158431 -29.12999665 37.68766462 -25 39 C-19.88350639 39.87054305 -15.51721493 39.78173659 -11.0625 36.9375 C-6.87869179 33.39507748 -5.27477274 29.65871648 -4.72265625 24.31640625 C-4.53677913 18.83674864 -4.7196329 14.59251394 -8 10 C-12.31420511 5.77783127 -15.59149431 3.59555835 -21.765625 3.640625 C-26.61923082 4.42127489 -30.59424624 7.59424624 -34 11 Z " fill="#3E2555" transform="translate(202,308)"/>
<path d="M0 0 C6.17501412 0.00630103 9.01077936 1.28328535 13.44824219 5.54223633 C16.34365213 8.58790941 19.10320583 11.7261466 21.8125 14.9375 C22.8953125 16.14019531 22.8953125 16.14019531 24 17.3671875 C25.64345926 19.19406856 27.22681976 21.06057237 28.8125 22.9375 C29.78703125 24.0203125 29.78703125 24.0203125 30.78125 25.125 C31.75578125 26.2078125 31.75578125 26.2078125 32.75 27.3125 C33.62978516 28.28316406 33.62978516 28.28316406 34.52734375 29.2734375 C35.8125 30.9375 35.8125 30.9375 35.8125 32.9375 C36.8025 33.2675 37.7925 33.5975 38.8125 33.9375 C38.15972939 40.35641104 34.36502914 45.02224334 29.7265625 49.21484375 C20.59367648 55.56470365 4.37890417 53.16506203 -6.1875 51.9375 C-7.8015925 50.3234075 -7.31484318 48.57273592 -7.31689453 46.34179688 C-7.32004669 45.36408325 -7.32319885 44.38636963 -7.32644653 43.37902832 C-7.3244223 42.31551147 -7.32239807 41.25199463 -7.3203125 40.15625 C-7.32126923 39.07243042 -7.32222595 37.98861084 -7.32321167 36.87194824 C-7.32389365 34.5752761 -7.32203811 32.27860205 -7.31787109 29.98193359 C-7.31252312 26.45275572 -7.3178155 22.92370513 -7.32421875 19.39453125 C-7.32355797 17.16927055 -7.32227682 14.94400993 -7.3203125 12.71875 C-7.32233673 11.65523315 -7.32436096 10.59171631 -7.32644653 9.49597168 C-7.32329437 8.51825806 -7.32014221 7.54054443 -7.31689453 6.53320312 C-7.31609894 5.66796021 -7.31530334 4.80271729 -7.31448364 3.91125488 C-7.04600709 -0.26177792 -3.56683977 0.35232934 0 0 Z " fill="#653C6D" transform="translate(236.1875,81.0625)"/>
<path d="M0 0 C0.97710937 -0.03738281 1.95421875 -0.07476562 2.9609375 -0.11328125 C5.625 0.3125 5.625 0.3125 7.15673828 2.00195312 C8.75290888 4.51378528 9.76326209 6.91115909 10.78125 9.70703125 C11.16410156 10.74537109 11.54695313 11.78371094 11.94140625 12.85351562 C12.52728516 14.47290039 12.52728516 14.47290039 13.125 16.125 C16.65730103 25.8057558 16.65730103 25.8057558 20.625 35.3125 C22.0736589 31.87960088 23.50677034 28.44040575 24.9375 25 C25.54368164 23.56430664 25.54368164 23.56430664 26.16210938 22.09960938 C28.56157357 16.3057812 30.48180447 10.60606432 31.93823242 4.50317383 C32.625 2.3125 32.625 2.3125 34.625 0.3125 C37.2265625 0.1171875 37.2265625 0.1171875 40.25 0.1875 C41.75433594 0.21457031 41.75433594 0.21457031 43.2890625 0.2421875 C44.05992187 0.26539063 44.83078125 0.28859375 45.625 0.3125 C46.92165997 3.91672186 46.31921591 5.93658906 44.96484375 9.4609375 C44.58626221 10.45931641 44.20768066 11.45769531 43.81762695 12.48632812 C43.40343506 13.54271484 42.98924316 14.59910156 42.5625 15.6875 C42.14637451 16.77224609 41.73024902 17.85699219 41.30151367 18.97460938 C38.68965216 25.73484037 35.93504417 32.41011256 33.015625 39.04296875 C31.46011152 42.7001732 30.0617112 46.396866 28.6875 50.125 C26.53321718 55.95713502 24.28788511 61.7438913 21.9375 67.5 C21.65205322 68.20680908 21.36660645 68.91361816 21.07250977 69.6418457 C17.72426767 77.77385073 17.72426767 77.77385073 15.625 80.3125 C12.70703125 80.80078125 12.70703125 80.80078125 9.4375 80.625 C8.35082031 80.57988281 7.26414062 80.53476562 6.14453125 80.48828125 C5.31308594 80.43027344 4.48164063 80.37226563 3.625 80.3125 C4.7488545 73.31962755 7.17847267 67.45864373 10.32446289 61.16210938 C12.54623109 56.46277158 12.95795671 53.50986191 11.625 48.3125 C10.71303449 45.77182546 9.76089892 43.34345509 8.6875 40.875 C8.38827637 40.16561279 8.08905273 39.45622559 7.78076172 38.7253418 C6.73650772 36.25107347 5.68100036 33.78177708 4.625 31.3125 C3.28067038 28.15761689 1.94021339 25.0012262 0.60717773 21.84155273 C-0.28417034 19.72903055 -1.18161029 17.61906639 -2.08569336 15.51196289 C-2.49827393 14.53477295 -2.91085449 13.55758301 -3.3359375 12.55078125 C-3.70509277 11.68493408 -4.07424805 10.81908691 -4.45458984 9.92700195 C-5.46660002 7.0523025 -6.03191225 4.33896617 -6.375 1.3125 C-4.64021442 -0.42228558 -2.35962677 0.05883584 0 0 Z " fill="#3E2654" transform="translate(382.375,301.6875)"/>
<path d="M0 0 C5.36458408 4.54823432 7.07466608 8.15889369 8 15 C8.13739764 17.88225018 8.140346 20.75940774 8.1328125 23.64453125 C8.13376923 24.45492355 8.13472595 25.26531586 8.13571167 26.1002655 C8.13638894 27.80211465 8.1345664 29.50396644 8.13037109 31.20581055 C8.12498144 33.82150984 8.13034917 36.43704013 8.13671875 39.05273438 C8.13605857 40.70833371 8.13477866 42.36393295 8.1328125 44.01953125 C8.13483673 44.80487747 8.13686096 45.59022369 8.13894653 46.39936829 C8.11497447 51.88502553 8.11497447 51.88502553 7 53 C4.98035801 53.07244053 2.95832876 53.08377188 0.9375 53.0625 C-0.71958984 53.04896484 -0.71958984 53.04896484 -2.41015625 53.03515625 C-3.26480469 53.02355469 -4.11945313 53.01195312 -5 53 C-5.01458252 51.90534424 -5.02916504 50.81068848 -5.04418945 49.68286133 C-5.10228739 45.61043095 -5.17951927 41.53854685 -5.26245117 37.46655273 C-5.29564654 35.70622645 -5.32369524 33.94579512 -5.34643555 32.18530273 C-5.3800812 29.65042475 -5.4324006 27.11650477 -5.48828125 24.58203125 C-5.49467117 23.79850784 -5.5010611 23.01498444 -5.50764465 22.2077179 C-5.62952117 17.64899051 -6.14128701 14.60659042 -9 11 C-12.36601238 8.75599174 -13.93695854 8.90669667 -17.8671875 9.22265625 C-21.2220214 10.44538875 -22.76453714 12.22912271 -25 15 C-25.71642597 17.85215965 -25.69841647 20.61710464 -25.671875 23.546875 C-25.68462463 24.35868225 -25.69737427 25.1704895 -25.71051025 26.00689697 C-25.74672965 28.58828979 -25.7495188 31.16837571 -25.75 33.75 C-25.77159251 36.34542021 -25.79999284 38.94064244 -25.83233643 41.53594971 C-25.85014392 43.14847222 -25.8603869 44.76109879 -25.86248779 46.37371826 C-25.89147777 51.89147777 -25.89147777 51.89147777 -27 53 C-29.01964199 53.07244053 -31.04167124 53.08377188 -33.0625 53.0625 C-34.16722656 53.05347656 -35.27195312 53.04445313 -36.41015625 53.03515625 C-37.69212891 53.01775391 -37.69212891 53.01775391 -39 53 C-39.02526605 45.32788798 -39.04283123 37.6557866 -39.05493164 29.98364258 C-39.05997377 27.37133381 -39.06680725 24.75902789 -39.07543945 22.14672852 C-39.08751036 18.40119732 -39.09322935 14.65570328 -39.09765625 10.91015625 C-39.10281754 9.73413345 -39.10797882 8.55811066 -39.11329651 7.34645081 C-39.11340981 5.72488319 -39.11340981 5.72488319 -39.11352539 4.07055664 C-39.115746 3.11347305 -39.11796661 2.15638947 -39.12025452 1.17030334 C-39 -1 -39 -1 -38 -2 C-33.87795185 -2.15854031 -29.97824322 -2.17007154 -26 -1 C-25.67 -0.34 -25.34 0.32 -25 1 C-24.2575 0.525625 -23.515 0.05125 -22.75 -0.4375 C-15.47517631 -4.57092255 -7.24739458 -3.91079964 0 0 Z " fill="#3B2154" transform="translate(477,304)"/>
<path d="M0 0 C5.18024014 3.74740776 7.40228047 9.30712529 10 15 C7.0689696 16.95402027 4.70834213 18.02010196 1.1953125 18.44140625 C-2.85049569 17.62792524 -4.83824546 14.24643698 -7.23828125 11.1015625 C-8.90499092 8.74063013 -8.90499092 8.74063013 -12 8 C-18.12093081 7.49828436 -21.1167095 7.91166377 -26 12 C-30.11875454 16.68685861 -30.34927374 21.1025921 -30.27734375 27.13671875 C-29.86440696 31.39985493 -28.65082687 34.63072473 -26 38 C-21.94379818 41.0185688 -18.1152904 41.53436261 -13.1796875 41.3515625 C-9.68740755 40.78829154 -7.62158466 39.30949125 -5 37 C-4.525625 36.0925 -4.05125 35.185 -3.5625 34.25 C-2.7890625 33.13625 -2.7890625 33.13625 -2 32 C2.55147826 31.40999356 5.88954343 32.00705136 10 34 C8.29774698 40.80901208 4.52194644 46.78417517 -1.5625 50.4375 C-9.34143662 53.97338028 -18.69304011 54.26708797 -26.875 51.8125 C-33.70630903 49.16136021 -38.39799334 44.25253987 -42 38 C-45.30560416 30.12951391 -45.28717777 20.53511816 -42.3125 12.5625 C-38.8597928 5.13978104 -34.62191033 1.03708304 -27 -2 C-17.16755281 -5.51158828 -9.39665149 -4.11442977 0 0 Z " fill="#3B2353" transform="translate(539,305)"/>
<path d="M0 0 C0.88429687 -0.03738281 1.76859375 -0.07476562 2.6796875 -0.11328125 C5.125 0.3125 5.125 0.3125 6.9453125 2.33203125 C7.52925781 3.31236328 7.52925781 3.31236328 8.125 4.3125 C8.70507812 4.02375 9.28515625 3.735 9.8828125 3.4375 C14.43134726 1.27582011 17.96818014 -0.33210248 23.125 0.3125 C24.125 1.3125 24.125 1.3125 24.22265625 3.59765625 C24.21105469 4.51417969 24.19945312 5.43070312 24.1875 6.375 C24.17847656 7.29410156 24.16945312 8.21320313 24.16015625 9.16015625 C24.14855469 9.87042969 24.13695312 10.58070313 24.125 11.3125 C23.12919922 11.56773437 23.12919922 11.56773437 22.11328125 11.828125 C17.00985924 13.22877221 12.91028885 14.40510506 9.125 18.3125 C7.94696044 21.84661867 7.91482351 25.10742319 7.84375 28.7890625 C7.82534058 29.51491547 7.80693115 30.24076843 7.78796387 30.98861694 C7.70930302 34.09317354 7.64133625 37.19794124 7.57275391 40.30273438 C7.52115899 42.56912395 7.46387943 44.83531967 7.40625 47.1015625 C7.39267456 47.80882477 7.37909912 48.51608704 7.3651123 49.24478149 C7.23785822 54.19964178 7.23785822 54.19964178 6.125 55.3125 C4.29384117 55.41101171 2.45880067 55.44222629 0.625 55.4375 C-0.3753125 55.44007813 -1.375625 55.44265625 -2.40625 55.4453125 C-4.875 55.3125 -4.875 55.3125 -5.875 54.3125 C-5.97368509 52.66058604 -6.00298837 51.00446783 -6.00439453 49.34960938 C-6.00754669 48.29181274 -6.01069885 47.23401611 -6.01394653 46.14416504 C-6.01091019 44.41764709 -6.01091019 44.41764709 -6.0078125 42.65625 C-6.00876923 41.48364624 -6.00972595 40.31104248 -6.01071167 39.10290527 C-6.0113937 36.61791938 -6.00953784 34.13293171 -6.00537109 31.64794922 C-6.00002319 27.82906113 -6.00531536 24.01029065 -6.01171875 20.19140625 C-6.01105797 17.78385391 -6.00977682 15.37630163 -6.0078125 12.96875 C-6.00983673 11.81773804 -6.01186096 10.66672607 -6.01394653 9.48083496 C-6.01079437 8.42303833 -6.00764221 7.3652417 -6.00439453 6.27539062 C-6.00359894 5.33908813 -6.00280334 4.40278564 -6.00198364 3.43811035 C-5.76288431 -0.564232 -3.51494125 0.09678824 0 0 Z " fill="#3B2054" transform="translate(226.875,301.6875)"/>
<path d="M0 0 C0.99 0 1.98 0 3 0 C3 33 3 66 3 100 C1.68 100 0.36 100 -1 100 C-1 99.34 -1 98.68 -1 98 C-0.34 98 0.32 98 1 98 C0.84152588 96.85345947 0.68305176 95.70691895 0.51977539 94.52563477 C-0.28497578 87.23890939 -0.23562643 79.91218115 -0.31640625 72.58984375 C-0.33701393 71.01086429 -0.35801129 69.43188988 -0.37937927 67.85292053 C-0.4342066 63.72502767 -0.48378699 59.59708832 -0.53222656 55.46911621 C-0.58273144 51.24564546 -0.6382652 47.02224106 -0.69335938 42.79882812 C-0.80045872 34.53260841 -0.90200787 26.26633268 -1 18 C-1.99 18 -2.98 18 -4 18 C-4.33 18.66 -4.66 19.32 -5 20 C-6.38312068 15.85063796 -4.94356779 12.86577166 -3.625 8.875 C-3.39039063 8.13378906 -3.15578125 7.39257812 -2.9140625 6.62890625 C-1.15176466 1.15176466 -1.15176466 1.15176466 0 0 Z " fill="#503656" transform="translate(326,147)"/>
<path d="M0 0 C1.26714844 -0.02578125 2.53429687 -0.0515625 3.83984375 -0.078125 C5.43505859 0.08429688 5.43505859 0.08429688 7.0625 0.25 C7.7225 1.24 8.3825 2.23 9.0625 3.25 C6.23046875 2.76171875 6.23046875 2.76171875 3.3984375 2.2734375 C0.37782324 2.11630344 0.37782324 2.11630344 -4.9375 4.25 C-5.2675 19.1 -5.5975 33.95 -5.9375 49.25 C3.9625 49.25 13.8625 49.25 24.0625 49.25 C24.3925 47.93 24.7225 46.61 25.0625 45.25 C26.0525 44.92 27.0425 44.59 28.0625 44.25 C28.371875 43.63125 28.68125 43.0125 29 42.375 C30.27528908 39.82442184 31.80582759 38.94250431 34.0625 37.25 C35.3141467 35.16665365 35.3141467 35.16665365 36.0625 33.25 C36.7225 33.25 37.3825 33.25 38.0625 33.25 C37.40972939 39.66891104 33.61502914 44.33474334 28.9765625 48.52734375 C19.84367648 54.87720365 3.62890417 52.47756203 -6.9375 51.25 C-8.5515925 49.6359075 -8.06484318 47.88523592 -8.06689453 45.65429688 C-8.07004669 44.67658325 -8.07319885 43.69886963 -8.07644653 42.69152832 C-8.0744223 41.62801147 -8.07239807 40.56449463 -8.0703125 39.46875 C-8.07126923 38.38493042 -8.07222595 37.30111084 -8.07321167 36.18444824 C-8.07389365 33.8877761 -8.07203811 31.59110205 -8.06787109 29.29443359 C-8.06252312 25.76525572 -8.0678155 22.23620513 -8.07421875 18.70703125 C-8.07355797 16.48177055 -8.07227682 14.25650993 -8.0703125 12.03125 C-8.07233673 10.96773315 -8.07436096 9.90421631 -8.07644653 8.80847168 C-8.07329437 7.83075806 -8.07014221 6.85304443 -8.06689453 5.84570312 C-8.06609894 4.98046021 -8.06530334 4.11521729 -8.06448364 3.22375488 C-7.77441875 -1.28483367 -3.65990132 0.04458763 0 0 Z " fill="#4F3654" transform="translate(236.9375,81.75)"/>
<path d="M0 0 C2.1640625 0.2421875 2.1640625 0.2421875 4.625 0.875 C5.44226563 1.07867187 6.25953125 1.28234375 7.1015625 1.4921875 C8.04128906 1.74355469 8.04128906 1.74355469 9 2 C9 3.32 9 4.64 9 6 C7.5234375 7.421875 7.5234375 7.421875 5.375 8.75 C4.56546875 9.2553125 3.7559375 9.760625 2.921875 10.28125 C-1.68028208 12.98840122 -6.30554539 15.65111308 -10.9609375 18.265625 C-13.01654854 19.43875007 -15.03070039 20.68713359 -17 22 C-17.99 22 -18.98 22 -20 22 C-19.43730255 18.27245231 -17.99753795 16.69566495 -15.25390625 14.1796875 C-14.49916016 13.47972656 -13.74441406 12.77976562 -12.96679688 12.05859375 C-12.17337891 11.33800781 -11.37996094 10.61742188 -10.5625 9.875 C-9.37817383 8.78251953 -9.37817383 8.78251953 -8.16992188 7.66796875 C-6.70739781 6.31890563 -5.24165012 4.97332326 -3.77172852 3.63232422 C-2.48803237 2.44963269 -1.2342275 1.2342275 0 0 Z " fill="#5C3F62" transform="translate(393,75)"/>
<path d="M0 0 C0.33 0 0.66 0 1 0 C1 21.78 1 43.56 1 66 C-19.46 66 -39.92 66 -61 66 C-61 65.67 -61 65.34 -61 65 C-41.2 64.67 -21.4 64.34 -1 64 C-1.03956733 44.43406823 -1.03956733 44.43406823 -1.09008789 24.86816406 C-1.0930082 22.41731815 -1.09555648 19.96647175 -1.09765625 17.515625 C-1.10277222 16.24058105 -1.10788818 14.96553711 -1.11315918 13.65185547 C-1.11334045 11.82533447 -1.11334045 11.82533447 -1.11352539 9.96191406 C-1.115746 8.90490295 -1.11796661 7.84789185 -1.12025452 6.7588501 C-1.01450737 4.33282464 -0.7008413 2.31390666 0 0 Z " fill="#48334D" transform="translate(328,67)"/>
<path d="M0 0 C0.02685095 2.47923801 0.04676547 4.9581884 0.0625 7.4375 C0.07087891 8.14455078 0.07925781 8.85160156 0.08789062 9.58007812 C0.09653588 11.38693559 0.05220011 13.19387603 0 15 C-1 16 -1 16 -4.59765625 16.09765625 C-6.08596867 16.0909822 -7.57426432 16.07902183 -9.0625 16.0625 C-9.82111328 16.05798828 -10.57972656 16.05347656 -11.36132812 16.04882812 C-13.24091871 16.0370068 -15.12046899 16.01907078 -17 16 C-17 12 -17 12 -15.6796875 10.25390625 C-14.78636719 9.41666016 -14.78636719 9.41666016 -13.875 8.5625 C-12.91787109 7.6653125 -12.91787109 7.6653125 -11.94140625 6.75 C-10.98041016 5.88375 -10.98041016 5.88375 -10 5 C-9.45214844 4.484375 -8.90429688 3.96875 -8.33984375 3.4375 C-5.23839516 0.64540306 -4.33789748 0 0 0 Z " fill="#603C67" transform="translate(227,86)"/>
<path d="M0 0 C2.05078125 0.03255208 4.1015625 0.06510417 6.15234375 0.09765625 C6.15234375 0.42765625 6.15234375 0.75765625 6.15234375 1.09765625 C3.84234375 1.09765625 1.53234375 1.09765625 -0.84765625 1.09765625 C-0.84765625 21.88765625 -0.84765625 42.67765625 -0.84765625 64.09765625 C-0.18765625 64.42765625 0.47234375 64.75765625 1.15234375 65.09765625 C-0.82765625 65.59265625 -0.82765625 65.59265625 -2.84765625 66.09765625 C-2.87078284 57.63998291 -2.88857295 49.18232269 -2.89946842 40.72462559 C-2.90469656 36.79776967 -2.91179294 32.87093531 -2.9230957 28.9440918 C-2.93392705 25.15751368 -2.93993361 21.37095635 -2.94253349 17.58436394 C-2.9443873 16.13661306 -2.94800706 14.68886337 -2.95338631 13.24112129 C-2.96059992 11.2200849 -2.96106433 9.19902777 -2.96118164 7.17797852 C-2.96340225 6.02548111 -2.96562286 4.8729837 -2.96791077 3.68556213 C-2.80353602 0.14817844 -2.80353602 0.14817844 0 0 Z " fill="#4F3655" transform="translate(333.84765625,62.90234375)"/>
<path d="M0 0 C0.66 0 1.32 0 2 0 C2 1.65 2 3.3 2 5 C1.01 5 0.02 5 -1 5 C-1.268125 5.639375 -1.53625 6.27875 -1.8125 6.9375 C-3 9 -3 9 -6 10 C-7.20882096 12.00016466 -7.20882096 12.00016466 -8 14 C-8.66 14 -9.32 14 -10 14 C-10.061875 14.55429688 -10.12375 15.10859375 -10.1875 15.6796875 C-11.35140668 19.00353638 -13.46492219 20.71235492 -16 23.125 C-19.44052785 26.2335286 -19.44052785 26.2335286 -22 30 C-23.32 29.34 -24.64 28.68 -26 28 C-24.37660195 26.29115995 -22.70680947 24.62553283 -21 23 C-20.34 23 -19.68 23 -19 23 C-18.7525 22.43796875 -18.505 21.8759375 -18.25 21.296875 C-16.78725133 18.60907431 -15.03195127 16.53594518 -13 14.25 C-12.29875 13.45078125 -11.5975 12.6515625 -10.875 11.828125 C-9 10 -9 10 -7 10 C-6.773125 9.46375 -6.54625 8.9275 -6.3125 8.375 C-4.54429911 5.17539839 -2.46329797 2.70962777 0 0 Z " fill="#5E4A63" transform="translate(326,66)"/>
<path d="M0 0 C0.66 0.33 1.32 0.66 2 1 C1.88206661 6.53604375 1.75784219 12.07189613 1.62768555 17.60766602 C1.58427067 19.49239218 1.54260057 21.37715936 1.50268555 23.26196289 C1.44514107 25.96513249 1.38140196 28.66809436 1.31640625 31.37109375 C1.29133751 32.64296791 1.29133751 32.64296791 1.26576233 33.9405365 C1.11387171 39.88612829 1.11387171 39.88612829 0 41 C-2.33297433 41.04092937 -4.66705225 41.04241723 -7 41 C-6.34 40.34 -5.68 39.68 -5 39 C-3.68 39 -2.36 39 -1 39 C-1.00523682 37.92516357 -1.01047363 36.85032715 -1.01586914 35.74291992 C-1.03396401 31.75660026 -1.04544846 27.77028424 -1.05493164 23.78393555 C-1.05996158 22.0583434 -1.06678626 20.33275552 -1.07543945 18.60717773 C-1.08756361 16.1274307 -1.09324169 13.64774 -1.09765625 11.16796875 C-1.10539818 10.01001045 -1.10539818 10.01001045 -1.11329651 8.82865906 C-1.11363318 5.6169772 -1.02326578 3.06979734 0 0 Z " fill="#332841" transform="translate(450,316)"/>
<path d="M0 0 C0.33 0 0.66 0 1 0 C1.02465288 4.68139254 1.04283739 9.36274759 1.05493164 14.04418945 C1.05997157 15.63794614 1.0668035 17.23169819 1.07543945 18.82543945 C1.08751999 21.11150253 1.09323155 23.39750467 1.09765625 25.68359375 C1.10281754 26.40026718 1.10797882 27.11694061 1.11329651 27.85533142 C1.11349263 29.57063672 1.06192007 31.28581266 1 33 C0 34 0 34 -2.50390625 34.09765625 C-3.51324219 34.08605469 -4.52257812 34.07445312 -5.5625 34.0625 C-6.57441406 34.05347656 -7.58632812 34.04445313 -8.62890625 34.03515625 C-9.41136719 34.02355469 -10.19382813 34.01195312 -11 34 C-11 32.02 -11 30.04 -11 28 C-10.34 29.32 -9.68 30.64 -9 32 C-5.04 31.505 -5.04 31.505 -1 31 C-1.00523682 30.23856689 -1.01047363 29.47713379 -1.01586914 28.69262695 C-1.03669525 25.23259308 -1.04967813 21.77257241 -1.0625 18.3125 C-1.07087891 17.11431641 -1.07925781 15.91613281 -1.08789062 14.68164062 C-1.09111328 13.52470703 -1.09433594 12.36777344 -1.09765625 11.17578125 C-1.10289307 10.11270752 -1.10812988 9.04963379 -1.11352539 7.9543457 C-1.00716844 5.1865491 -0.62894788 2.69207103 0 0 Z " fill="#312046" transform="translate(233,323)"/>
<path d="M0 0 C2.89589652 -0.02706445 5.79153795 -0.04687029 8.6875 -0.0625 C9.91243164 -0.07506836 9.91243164 -0.07506836 11.16210938 -0.08789062 C15.24499084 -0.10442051 19.01651707 -0.03035098 23 1 C23 1.33 23 1.66 23 2 C17.06 2.33 11.12 2.66 5 3 C6.69313411 8.61017783 6.69313411 8.61017783 10.125 12.375 C11.07375 13.24125 12.0225 14.1075 13 15 C12.67 15.66 12.34 16.32 12 17 C9.79680067 14.93132437 7.61327025 12.84718206 5.4375 10.75 C4.80908203 10.16347656 4.18066406 9.57695312 3.53320312 8.97265625 C2.94345703 8.39902344 2.35371094 7.82539063 1.74609375 7.234375 C1.19622803 6.71069336 0.6463623 6.18701172 0.07983398 5.64746094 C-1 4 -1 4 -0.67163086 1.79785156 C-0.44999268 1.20456055 -0.22835449 0.61126953 0 0 Z " fill="#523B58" transform="translate(234,135)"/>
<path d="M0 0 C0.99 0 1.98 0 3 0 C3 0.66 3 1.32 3 2 C2.34 2 1.68 2 1 2 C1.00580078 2.93457031 1.01160156 3.86914062 1.01757812 4.83203125 C1.05443841 15.56363933 0.82352175 26.27384254 0.5 37 C0.45161134 38.66145218 0.40343326 40.32291052 0.35546875 41.984375 C0.23939429 45.98965799 0.12051353 49.99484822 0 54 C-0.33 54 -0.66 54 -1 54 C-1.02526648 46.47030348 -1.04283141 38.9406178 -1.05493164 31.41088867 C-1.0599737 28.84708243 -1.06680714 26.28327909 -1.07543945 23.71948242 C-1.08751064 20.04344979 -1.09322942 16.36745502 -1.09765625 12.69140625 C-1.10281754 11.53725723 -1.10797882 10.38310822 -1.11329651 9.19398499 C-1.11337204 8.13296066 -1.11344757 7.07193634 -1.11352539 5.97875977 C-1.115746 5.03944107 -1.11796661 4.10012238 -1.12025452 3.13233948 C-1 1 -1 1 0 0 Z " fill="#302041" transform="translate(439,302)"/>
<path d="M0 0 C-0.33 0.99 -0.66 1.98 -1 3 C-1.66 3 -2.32 3 -3 3 C-3 3.66 -3 4.32 -3 5 C13.5 5 30 5 47 5 C47 5.33 47 5.66 47 6 C29.18 6.33 11.36 6.66 -7 7 C-5.97478996 2.89915984 -4.64580209 0 0 0 Z " fill="#583D5F" transform="translate(273,126)"/>
<path d="M0 0 C0.33 0 0.66 0 1 0 C1.88778618 3.77309128 2.37196186 6.13861463 0.8125 9.75 C-4.80837022 14.24669618 -12.17856083 15.46076355 -19.25 14.6875 C-21.10625 14.3471875 -21.10625 14.3471875 -23 14 C-23.33 13.01 -23.66 12.02 -24 11 C-22.96552734 11.16048828 -22.96552734 11.16048828 -21.91015625 11.32421875 C-15.62412207 12.12614081 -9.45203919 12.76665778 -4 9 C-2.12953469 6.14374893 -0.97782717 3.26170322 0 0 Z " fill="#493A5B" transform="translate(358,334)"/>
<path d="M0 0 C4.44743594 2.07500899 8.14865635 4.1620525 10.25390625 8.70703125 C10.50011719 9.46371094 10.74632812 10.22039062 11 11 C12.65 11 14.3 11 16 11 C15.34 11.66 14.68 12.32 14 13 C11.21950621 12.81729815 10.16358812 12.16323632 8.18359375 10.1875 C7.31927734 9.1046875 7.31927734 9.1046875 6.4375 8 C3.82937402 4.68337666 3.82937402 4.68337666 0 3 C-5.52902138 2.64328894 -8.36617299 2.72906329 -13 6 C-13.66 6 -14.32 6 -15 6 C-14 3 -14 3 -12 1.3125 C-7.83606132 -0.50922317 -4.47017917 -0.89548016 0 0 Z " fill="#382C44" transform="translate(527,310)"/>
<path d="M0 0 C0.99 0 1.98 0 3 0 C3.02689216 1.47906892 3.04634621 2.95827483 3.0625 4.4375 C3.07410156 5.26121094 3.08570313 6.08492188 3.09765625 6.93359375 C3 9 3 9 2 10 C-0.69654854 10.07319621 -3.36691458 10.09242537 -6.0625 10.0625 C-7.20041992 10.05573242 -7.20041992 10.05573242 -8.36132812 10.04882812 C-10.24091871 10.0370068 -12.12046899 10.01907078 -14 10 C-14.33 9.34 -14.66 8.68 -15 8 C-13.02 8 -11.04 8 -9 8 C-8.67 7.34 -8.34 6.68 -8 6 C-5.69 6 -3.38 6 -1 6 C-0.67 4.02 -0.34 2.04 0 0 Z " fill="#635166" transform="translate(224,92)"/>
<path d="M0 0 C0.66 0 1.32 0 2 0 C2 7.26 2 14.52 2 22 C1.34 22 0.68 22 0 22 C-1.08187107 18.48821216 -1.13346699 15.22447434 -1.125 11.5625 C-1.12757813 10.45003906 -1.13015625 9.33757812 -1.1328125 8.19140625 C-1.01399223 5.33622508 -0.65353269 2.77492054 0 0 Z " fill="#322248" transform="translate(155,318)"/>
<path d="M0 0 C2 2 2 2 2.1953125 5.00927734 C2.16050781 6.90347412 2.16050781 6.90347412 2.125 8.8359375 C2.11742676 9.5116983 2.10985352 10.18745911 2.10205078 10.88369751 C2.06933775 13.77725667 2.01320811 16.67025324 1.95898438 19.56347656 C1.92275782 21.67510352 1.89860009 23.78663769 1.875 25.8984375 C1.85179687 27.16349121 1.82859375 28.42854492 1.8046875 29.73193359 C1.98839975 32.80589887 2.36800015 34.44036244 4 37 C2.68 37 1.36 37 0 37 C0 24.79 0 12.58 0 0 Z " fill="#2E1F41" transform="translate(472,319)"/>
<path d="M0 0 C2 2 2 2 2.23046875 4.07421875 C2.09893071 12.07412302 1.60284642 20.02305011 1 28 C0.67 28 0.34 28 0 28 C-0.16899129 24.9792807 -0.33526129 21.95845177 -0.5 18.9375 C-0.54769531 18.08994141 -0.59539062 17.24238281 -0.64453125 16.36914062 C-1.38014482 2.76028963 -1.38014482 2.76028963 0 0 Z " fill="#5A496A" transform="translate(259,300)"/>
<path d="M0 0 C0.66 0 1.32 0 2 0 C2.02684312 2.81256281 2.04676188 5.62487241 2.0625 8.4375 C2.07087891 9.23994141 2.07925781 10.04238281 2.08789062 10.86914062 C2.0965143 12.91295221 2.0522815 14.95683902 2 17 C1 18 1 18 -2.5625 18.0625 C-3.696875 18.041875 -4.83125 18.02125 -6 18 C-6 17.34 -6 16.68 -6 16 C-4.35 16 -2.7 16 -1 16 C-0.67 10.72 -0.34 5.44 0 0 Z " fill="#322443" transform="translate(483,339)"/>
<path d="M0 0 C1.46953125 -0.03867188 1.46953125 -0.03867188 2.96875 -0.078125 C3.8040625 0.03015625 4.639375 0.1384375 5.5 0.25 C6.16 1.24 6.82 2.23 7.5 3.25 C6.30375 3.04375 5.1075 2.8375 3.875 2.625 C-0.0576018 2.11418162 -2.8121243 2.68265283 -6.5 4.25 C-6.5 7.88 -6.5 11.51 -6.5 15.25 C-6.83 15.25 -7.16 15.25 -7.5 15.25 C-7.5 10.63 -7.5 6.01 -7.5 1.25 C-4.90541894 -0.04729053 -2.89552402 0.0457188 0 0 Z " fill="#5F4066" transform="translate(238.5,81.75)"/>
<path d="M0 0 C1.32 0.33 2.64 0.66 4 1 C3.43410156 1.55429688 2.86820312 2.10859375 2.28515625 2.6796875 C1.55167969 3.40414062 0.81820313 4.12859375 0.0625 4.875 C-0.66839844 5.59429687 -1.39929688 6.31359375 -2.15234375 7.0546875 C-4.05667999 8.87027192 -4.05667999 8.87027192 -5 11 C-6.32 10.34 -7.64 9.68 -9 9 C-7.37660195 7.29115995 -5.70680947 5.62553283 -4 4 C-3.34 4 -2.68 4 -2 4 C-1.34 2.68 -0.68 1.36 0 0 Z " fill="#55405A" transform="translate(309,85)"/>
<path d="M0 0 C4.18868077 1.7423504 5.37633263 3.76163132 7.25 7.7578125 C8.43179809 11.29089639 8.26412935 14.30218911 8 18 C7.01 18.33 6.02 18.66 5 19 C5.03480469 18.34773438 5.06960938 17.69546875 5.10546875 17.0234375 C5.27472185 11.5589804 5.13821564 7.70732346 2 3 C1.34 2.67 0.68 2.34 0 2 C0 1.34 0 0.68 0 0 Z " fill="#2F2340" transform="translate(363,321)"/>
<path d="M0 0 C0.7425 0.433125 0.7425 0.433125 1.5 0.875 C4.91752035 2.41288416 8.3506202 3.14847805 12 4 C12 4.66 12 5.32 12 6 C10.37536158 6.05395478 8.75021459 6.09277195 7.125 6.125 C6.22007813 6.14820313 5.31515625 6.17140625 4.3828125 6.1953125 C2 6 2 6 0 4 C0 2.68 0 1.36 0 0 Z " fill="#332246" transform="translate(118,351)"/>
<path d="M0 0 C0.99 0 1.98 0 3 0 C3.33 0.99 3.66 1.98 4 3 C4.33 2.01 4.66 1.02 5 0 C5.33 1.32 5.66 2.64 6 4 C3.8125 5.625 3.8125 5.625 1 7 C-1.8125 6.1875 -1.8125 6.1875 -4 5 C-2.1875 2.5 -2.1875 2.5 0 0 Z " fill="#673A6F" transform="translate(395,78)"/>
<path d="M0 0 C1.98 0.495 1.98 0.495 4 1 C4 1.66 4 2.32 4 3 C4.99 2.67 5.98 2.34 7 2 C7.33 2.66 7.66 3.32 8 4 C9.88263881 4.90343684 9.88263881 4.90343684 12.0625 5.625 C12.79597656 5.88539063 13.52945312 6.14578125 14.28515625 6.4140625 C15.13400391 6.70410156 15.13400391 6.70410156 16 7 C16 7.66 16 8.32 16 9 C11.40191871 8.46105575 8.13215631 7.23428472 4.125 4.9375 C3.15820312 4.38964844 2.19140625 3.84179688 1.1953125 3.27734375 C0.47085937 2.85582031 -0.25359375 2.43429688 -1 2 C-0.67 1.34 -0.34 0.68 0 0 Z " fill="#553C5B" transform="translate(305,234)"/>
<path d="M0 0 C0.33 0 0.66 0 1 0 C1.33 6.93 1.66 13.86 2 21 C2.66 21.33 3.32 21.66 4 22 C2.68 22.33 1.36 22.66 0 23 C0 15.41 0 7.82 0 0 Z " fill="#4C3150" transform="translate(331,106)"/>
<path d="M0 0 C0 0.33 0 0.66 0 1 C-1.98 1 -3.96 1 -6 1 C-6.226875 1.5775 -6.45375 2.155 -6.6875 2.75 C-8.33038023 5.5663661 -10.39533227 7.08077114 -13 9 C-13.33 8.01 -13.66 7.02 -14 6 C-9.36567158 0.43880589 -7.22299847 -0.74720674 0 0 Z " fill="#322045" transform="translate(299,303)"/>
<path d="M0 0 C0 0.99 0 1.98 0 3 C0.66 3.33 1.32 3.66 2 4 C-3.625 8 -3.625 8 -7 8 C-6.44414399 4.1090079 -4.34122117 0 0 0 Z " fill="#4B3751" transform="translate(380,89)"/>
<path d="M0 0 C0.99 0.33 1.98 0.66 3 1 C3 5.95 3 10.9 3 16 C2.34 16 1.68 16 1 16 C0.67 10.72 0.34 5.44 0 0 Z " fill="#312142" transform="translate(196,320)"/>
<path d="M0 0 C0.33 0 0.66 0 1 0 C1 5.61 1 11.22 1 17 C-2.40077605 12.46563193 -2.40077605 12.46563193 -2.3125 8.5 C-2.30863281 7.7471875 -2.30476562 6.994375 -2.30078125 6.21875 C-1.97144914 3.78939106 -1.20809315 2.11777285 0 0 Z " fill="#332246" transform="translate(223,319)"/>
<path d="M0 0 C1.98 0.99 1.98 0.99 4 2 C4 2.66 4 3.32 4 4 C4.5775 4.2475 5.155 4.495 5.75 4.75 C8.3002997 6.16683317 10.01785701 7.87627537 12 10 C11.67 10.99 11.34 11.98 11 13 C9.16052663 11.21427748 7.32842259 9.42197551 5.5 7.625 C4.71302734 6.86316406 4.71302734 6.86316406 3.91015625 6.0859375 C2.56846819 4.76167396 1.28004185 3.38394135 0 2 C0 1.34 0 0.68 0 0 Z " fill="#4F3854" transform="translate(250,155)"/>
<path d="M0 0 C1.32 0.33 2.64 0.66 4 1 C0.7 4.3 -2.6 7.6 -6 11 C-6.66 10.67 -7.32 10.34 -8 10 C-6.625 8 -6.625 8 -5 6 C-4.34 6 -3.68 6 -3 6 C-2.814375 5.071875 -2.814375 5.071875 -2.625 4.125 C-2 2 -2 2 0 0 Z " fill="#4F3654" transform="translate(347,112)"/>
<path d="M0 0 C4.55637286 1.35459734 5.72915714 2.93140653 8 7 C9.62836738 8.7041054 11.28769752 10.38025441 13 12 C12.67 12.66 12.34 13.32 12 14 C9.99387601 12.04761147 7.99507567 10.08862178 6 8.125 C5.42765625 7.56941406 4.8553125 7.01382813 4.265625 6.44140625 C2.80549218 4.99865596 1.39850702 3.5025626 0 2 C0 1.34 0 0.68 0 0 Z " fill="#4C344F" transform="translate(271,177)"/>
<path d="M0 0 C-1.5830577 4.2742558 -4.50568404 6.26531794 -8 9 C-8.3125 6.1875 -8.3125 6.1875 -8 3 C-5.14925356 0.68858396 -3.6860549 0 0 0 Z " fill="#806781" transform="translate(361,102)"/>
<path d="M0 0 C0 0.66 0 1.32 0 2 C0.66 2.33 1.32 2.66 2 3 C-2.29 3 -6.58 3 -11 3 C-7.75714683 -0.24285317 -4.46574551 -2.23287275 0 0 Z " fill="#322145" transform="translate(305,354)"/>
<path d="M0 0 C0 0.66 0 1.32 0 2 C-0.66386719 2.12117188 -1.32773437 2.24234375 -2.01171875 2.3671875 C-6.53424459 3.22547708 -10.79938524 4.03971311 -15 6 C-14 3 -14 3 -12 1.3125 C-7.93673224 -0.46517964 -4.36902407 -0.25700142 0 0 Z " fill="#312240" transform="translate(527,310)"/>
<path d="M0 0 C10.88028169 -0.57042254 10.88028169 -0.57042254 15 3 C15 3.66 15 4.32 15 5 C13.7625 4.5359375 13.7625 4.5359375 12.5 4.0625 C9.73011464 3.22164194 7.52080291 2.78077777 4.6875 2.5 C3.470625 2.335 2.25375 2.17 1 2 C0.67 1.34 0.34 0.68 0 0 Z " fill="#312243" transform="translate(177,310)"/>
<path d="M0 0 C0.33 1.32 0.66 2.64 1 4 C0.34 4 -0.32 4 -1 4 C-1 3.01 -1 2.02 -1 1 C-1.79664063 1.46792969 -1.79664063 1.46792969 -2.609375 1.9453125 C-3.31578125 2.33460938 -4.0221875 2.72390625 -4.75 3.125 C-5.79414063 3.71667969 -5.79414063 3.71667969 -6.859375 4.3203125 C-9 5 -9 5 -11.265625 4.1171875 C-11.83796875 3.74851562 -12.4103125 3.37984375 -13 3 C-8.37802694 0.78145293 -5.23175837 -0.38281159 0 0 Z " fill="#352747" transform="translate(250,302)"/>
<path d="M0 0 C-1.15093722 3.45281166 -2.3205993 4.38082163 -5.0625 6.6875 C-5.79597656 7.31011719 -6.52945312 7.93273437 -7.28515625 8.57421875 C-7.85105469 9.04472656 -8.41695313 9.51523437 -9 10 C-9.33 8.68 -9.66 7.36 -10 6 C-8.71283353 4.99421411 -7.42011342 3.99553202 -6.125 3 C-5.40570313 2.443125 -4.68640625 1.88625 -3.9453125 1.3125 C-2 0 -2 0 0 0 Z " fill="#4B3D5C" transform="translate(328,281)"/>
<path d="M0 0 C0.66 0 1.32 0 2 0 C3.25 6.625 3.25 6.625 1 10 C0.34 9.67 -0.32 9.34 -1 9 C-1.125 2.25 -1.125 2.25 0 0 Z " fill="#5B3E60" transform="translate(298,223)"/>
<path d="M0 0 C0.66 0 1.32 0 2 0 C2 1.65 2 3.3 2 5 C1.34 5 0.68 5 0 5 C-0.33 7.64 -0.66 10.28 -1 13 C-1.33 12.34 -1.66 11.68 -2 11 C-2.66 10.67 -3.32 10.34 -4 10 C-2.68 6.7 -1.36 3.4 0 0 Z " fill="#54385B" transform="translate(303,210)"/>
<path d="M0 0 C1.98 0.99 1.98 0.99 4 2 C4 2.66 4 3.32 4 4 C5.32 4 6.64 4 8 4 C8.66 5.65 9.32 7.3 10 9 C6.71245489 8.42110619 5.06327505 7.45171589 2.75 5.0625 C2.22921875 4.53785156 1.7084375 4.01320312 1.171875 3.47265625 C0 2 0 2 0 0 Z " fill="#523759" transform="translate(287,194)"/>
<path d="M0 0 C-1.55002747 3.88397689 -4.00476621 6.02979619 -7.125 8.75 C-8.49011719 9.94882813 -8.49011719 9.94882813 -9.8828125 11.171875 C-10.58148438 11.77515625 -11.28015625 12.3784375 -12 13 C-12 10 -12 10 -9.8828125 7.51953125 C-8.97273438 6.62621094 -8.06265625 5.73289062 -7.125 4.8125 C-6.22007812 3.91144531 -5.31515625 3.01039062 -4.3828125 2.08203125 C-2 0 -2 0 0 0 Z " fill="#533D59" transform="translate(300,97)"/>
<path d="M0 0 C0.66 0.33 1.32 0.66 2 1 C1.67 4.96 1.34 8.92 1 13 C0.34 13 -0.32 13 -1 13 C-1.02696365 11.20841511 -1.04637917 9.41671527 -1.0625 7.625 C-1.07410156 6.62726563 -1.08570313 5.62953125 -1.09765625 4.6015625 C-1 2 -1 2 0 0 Z " fill="#342542" transform="translate(496,321)"/>
<path d="M0 0 C0.66 0 1.32 0 2 0 C2.3669579 6.48292295 2.3669579 6.48292295 0.625 8.9375 C-1 10 -1 10 -3 10 C-2.69201674 8.51988629 -2.378482 7.04092675 -2.0625 5.5625 C-1.88847656 4.73878906 -1.71445312 3.91507813 -1.53515625 3.06640625 C-1 1 -1 1 0 0 Z " fill="#614D65" transform="translate(326,147)"/>
<path d="M0 0 C0.66 0 1.32 0 2 0 C1.43179252 5.45479185 0.05362055 9.91059256 -2 15 C-2.33 15 -2.66 15 -3 15 C-3.42589023 9.46342706 -1.905247 5.10334017 0 0 Z " fill="#4F3753" transform="translate(325,136)"/>
<path d="M0 0 C0.91007812 0.00902344 1.82015625 0.01804687 2.7578125 0.02734375 C3.45648438 0.03894531 4.15515625 0.05054688 4.875 0.0625 C4.875 0.3925 4.875 0.7225 4.875 1.0625 C4.1325 1.165625 3.39 1.26875 2.625 1.375 C-0.18225499 1.88365195 -0.18225499 1.88365195 -2.25 3.6875 C-2.86875 4.14125 -3.4875 4.595 -4.125 5.0625 C-5.115 4.7325 -6.105 4.4025 -7.125 4.0625 C-7.125 3.0725 -7.125 2.0825 -7.125 1.0625 C-4.60024538 -0.19987731 -2.81299534 -0.03606404 0 0 Z " fill="#534364" transform="translate(71.125,301.9375)"/>
<path d="M0 0 C0.66 0.33 1.32 0.66 2 1 C1.01 3.97 0.02 6.94 -1 10 C-1.66 9.67 -2.32 9.34 -3 9 C-2.01 6.03 -1.02 3.06 0 0 Z " fill="#58405E" transform="translate(306,190)"/>
<path d="M0 0 C0 0.99 0 1.98 0 3 C-1.98 3.99 -1.98 3.99 -4 5 C-4 5.66 -4 6.32 -4 7 C-4.66 7 -5.32 7 -6 7 C-4.77065985 3.31197956 -3.06140622 2.27643027 0 0 Z M-8 7 C-7.34 7.33 -6.68 7.66 -6 8 C-6.33 8.99 -6.66 9.98 -7 11 C-7.99 10.67 -8.98 10.34 -10 10 C-9.34 9.01 -8.68 8.02 -8 7 Z " fill="#5E3C65" transform="translate(300,98)"/>
<path d="M0 0 C2.19726562 1.85546875 2.19726562 1.85546875 4.39453125 3.7109375 C5.8655046 4.89201099 7.43037794 5.95358529 9 7 C8.67 7.66 8.34 8.32 8 9 C4.11980141 7.74155722 2.0588158 6.57583797 0 3 C0 2.01 0 1.02 0 0 Z " fill="#382447" transform="translate(325,338)"/>
<path d="M0 0 C0.99 0.33 1.98 0.66 3 1 C2.6875 3.375 2.6875 3.375 2 6 C1.01 6.66 0.02 7.32 -1 8 C-2.2077558 4.37673261 -1.54311128 3.35853631 0 0 Z " fill="#4E3E5C" transform="translate(196,335)"/>
<path d="M0 0 C-0.57344937 2.86724686 -0.8614515 3.8614515 -3 6 C-5.125 5.625 -5.125 5.625 -7 5 C-2.25 0 -2.25 0 0 0 Z " fill="#443557" transform="translate(508,306)"/>
<path d="M0 0 C0.99 0.33 1.98 0.66 3 1 C2.1875 2.9375 2.1875 2.9375 1 5 C0.01 5.33 -0.98 5.66 -2 6 C-2.66 5.34 -3.32 4.68 -4 4 C-2.68 2.68 -1.36 1.36 0 0 Z " fill="#7B627F" transform="translate(279,116)"/>
<path d="M0 0 C0.66 0 1.32 0 2 0 C1.01 2.97 0.02 5.94 -1 9 C-1.99 9 -2.98 9 -4 9 C-4 8.34 -4 7.68 -4 7 C-3.34 7 -2.68 7 -2 7 C-1.34 4.69 -0.68 2.38 0 0 Z " fill="#44364E" transform="translate(369,339)"/>
<path d="M0 0 C2.37948772 0.17625835 3.70225849 0.69719773 5.37890625 2.40234375 C6.62115486 3.90649092 7.81376056 5.45129851 9 7 C8.01 7 7.02 7 6 7 C5.67 6.01 5.34 5.02 5 4 C2.49552484 2.78130071 2.49552484 2.78130071 0 2 C0 1.34 0 0.68 0 0 Z " fill="#312448" transform="translate(358,284)"/>
<path d="M0 0 C0.33 0.99 0.66 1.98 1 3 C1.66 3 2.32 3 3 3 C3 5.31 3 7.62 3 10 C2.01 10.33 1.02 10.66 0 11 C0 7.37 0 3.74 0 0 Z " fill="#3F3257" transform="translate(248,303)"/>
<path d="M0 0 C0.33 0.66 0.66 1.32 1 2 C4.3 2 7.6 2 11 2 C10.67 2.66 10.34 3.32 10 4 C7.03 4 4.06 4 1 4 C0.34 5.32 -0.32 6.64 -1 8 C-1.125 2.25 -1.125 2.25 0 0 Z " fill="#776A88" transform="translate(259,273)"/>
<path d="M0 0 C2 0 2 0 4.5625 2.3125 C7 5 7 5 8 8 C4.11137013 6.73882275 2.10624401 5.54735833 0 2 C0 1.34 0 0.68 0 0 Z " fill="#332443" transform="translate(509,340)"/>
<path d="M0 0 C0.99 0.33 1.98 0.66 3 1 C2.67 2.98 2.34 4.96 2 7 C1.34 7 0.68 7 0 7 C0 5.35 0 3.7 0 2 C-0.66 1.67 -1.32 1.34 -2 1 C-1.34 0.67 -0.68 0.34 0 0 Z " fill="#31223E" transform="translate(146,302)"/>
<path d="M0 0 C1.32 0.33 2.64 0.66 4 1 C2.35 2.65 0.7 4.3 -1 6 C-1.66 5.34 -2.32 4.68 -3 4 C-2.01 2.68 -1.02 1.36 0 0 Z " fill="#634668" transform="translate(274,121)"/>
<path d="M0 0 C1.37478516 0.01740234 1.37478516 0.01740234 2.77734375 0.03515625 C3.69644531 0.04417969 4.61554688 0.05320312 5.5625 0.0625 C6.27277344 0.07410156 6.98304688 0.08570313 7.71484375 0.09765625 C4.6267468 1.86228308 3.48172239 2.09765625 -0.28515625 2.09765625 C-0.61515625 2.75765625 -0.94515625 3.41765625 -1.28515625 4.09765625 C-1.28515625 3.43765625 -1.28515625 2.77765625 -1.28515625 2.09765625 C-1.94515625 1.76765625 -2.60515625 1.43765625 -3.28515625 1.09765625 C-2.28515625 0.09765625 -2.28515625 0.09765625 0 0 Z " fill="#57496E" transform="translate(224.28515625,301.90234375)"/>
<path d="M0 0 C0.66 0 1.32 0 2 0 C2.1875 2.875 2.1875 2.875 2 6 C1.01 6.66 0.02 7.32 -1 8 C-2.2077558 4.37673261 -1.54311128 3.35853631 0 0 Z " fill="#634D69" transform="translate(319,166)"/>
<path d="M0 0 C0.66 0 1.32 0 2 0 C2.12375 0.639375 2.2475 1.27875 2.375 1.9375 C2.684375 2.9584375 2.684375 2.9584375 3 4 C3.66 4.33 4.32 4.66 5 5 C2.36 4.67 -0.28 4.34 -3 4 C-1.625 2 -1.625 2 0 0 Z " fill="#4F3853" transform="translate(212,96)"/>
<path d="M0 0 C1.32 0.33 2.64 0.66 4 1 C2 4 2 4 -1.125 4.6875 C-2.07375 4.790625 -3.0225 4.89375 -4 5 C-2.68 3.35 -1.36 1.7 0 0 Z " fill="#6C5870" transform="translate(217,91)"/>
<path d="M0 0 C0.66 0.33 1.32 0.66 2 1 C2 1.66 2 2.32 2 3 C3.32 3.33 4.64 3.66 6 4 C3.35261084 5.4606285 2.10551666 6 -1 6 C-1.042721 4.33388095 -1.04063832 2.66617115 -1 1 C-0.67 0.67 -0.34 0.34 0 0 Z " fill="#7C6382" transform="translate(380,87)"/>
<path d="M0 0 C0.33 0.99 0.66 1.98 1 3 C-2 5 -2 5 -5 5 C-4.1875 3.0625 -4.1875 3.0625 -3 1 C-2.01 0.67 -1.02 0.34 0 0 Z " fill="#3E2F4E" transform="translate(362,350)"/>
<path d="M0 0 C0.66 0.33 1.32 0.66 2 1 C1.67 3.31 1.34 5.62 1 8 C0.01 8 -0.98 8 -2 8 C-1.125 2.25 -1.125 2.25 0 0 Z " fill="#574A67" transform="translate(95,347)"/>
<path d="M0 0 C0.99 0.33 1.98 0.66 3 1 C3.33 3.97 3.66 6.94 4 10 C1.04816899 7.04816899 0.91336012 4.04488053 0 0 Z " fill="#312043" transform="translate(74,331)"/>
<path d="M0 0 C0.66 0 1.32 0 2 0 C1.47731534 2.76276177 0.89130413 5.3260876 0 8 C-0.66 8 -1.32 8 -2 8 C-1.125 2.25 -1.125 2.25 0 0 Z " fill="#2F2343" transform="translate(94,323)"/>
<path d="M0 0 C2.95183101 2.95183101 3.08663988 5.95511947 4 10 C2 8.375 2 8.375 0 6 C-0.25 2.75 -0.25 2.75 0 0 Z " fill="#534A64" transform="translate(395,319)"/>
<path d="M0 0 C0.66 0 1.32 0 2 0 C2 1.98 2 3.96 2 6 C0.68 5.34 -0.64 4.68 -2 4 C-1.34 2.68 -0.68 1.36 0 0 Z " fill="#604166" transform="translate(307,185)"/>
<path d="M0 0 C0.66 0 1.32 0 2 0 C1.01 2.97 0.02 5.94 -1 9 C-1.33 9 -1.66 9 -2 9 C-2.25 3.375 -2.25 3.375 0 0 Z " fill="#4D3253" transform="translate(315,166)"/>
<path d="M0 0 C0.99 0.33 1.98 0.66 3 1 C2.01 1.33 1.02 1.66 0 2 C0.33 2.99 0.66 3.98 1 5 C-0.32 5.33 -1.64 5.66 -3 6 C-2.42655063 3.13275314 -2.1385485 2.1385485 0 0 Z " fill="#68486A" transform="translate(363,96)"/>
<path d="M0 0 C1.62418745 -0.08090971 3.24951745 -0.13914995 4.875 -0.1875 C5.77992188 -0.22230469 6.68484375 -0.25710937 7.6171875 -0.29296875 C8.79667969 -0.14794922 8.79667969 -0.14794922 10 0 C10.66 0.99 11.32 1.98 12 3 C6.06 2.01 6.06 2.01 0 1 C0 0.67 0 0.34 0 0 Z " fill="#4F4055" transform="translate(234,82)"/>
<path d="M0 0 C1.32 0 2.64 0 4 0 C4.66 1.98 5.32 3.96 6 6 C3.37812506 4.95125002 2.20628639 4.35068687 0.75 1.875 C0.5025 1.25625 0.255 0.6375 0 0 Z " fill="#67576F" transform="translate(233,137)"/>
<path d="M0 0 C0.66 1.32 1.32 2.64 2 4 C-0.475 5.485 -0.475 5.485 -3 7 C-3 5.68 -3 4.36 -3 3 C-2.01 3 -1.02 3 0 3 C0 2.01 0 1.02 0 0 Z " fill="#6C5771" transform="translate(399,78)"/>
<path d="" fill="#FFFFFF" transform="translate(0,0)"/>
<path d="" fill="#FFFFFF" transform="translate(0,0)"/>
<path d="" fill="#FFFFFF" transform="translate(0,0)"/>
<path d="" fill="#FFFFFF" transform="translate(0,0)"/>
<path d="" fill="#FFFFFF" transform="translate(0,0)"/>
<path d="" fill="#FFFFFF" transform="translate(0,0)"/>
<path d="" fill="#FFFFFF" transform="translate(0,0)"/>
<path d="" fill="#FFFFFF" transform="translate(0,0)"/>
<path d="" fill="#FFFFFF" transform="translate(0,0)"/>
<path d="" fill="#FFFFFF" transform="translate(0,0)"/>
<path d="" fill="#FFFFFF" transform="translate(0,0)"/>
<path d="" fill="#FFFFFF" transform="translate(0,0)"/>
<path d="" fill="#FFFFFF" transform="translate(0,0)"/>
<path d="" fill="#FFFFFF" transform="translate(0,0)"/>
<path d="" fill="#FFFFFF" transform="translate(0,0)"/>
<path d="" fill="#FFFFFF" transform="translate(0,0)"/>
<path d="" fill="#FFFFFF" transform="translate(0,0)"/>
<path d="" fill="#FFFFFF" transform="translate(0,0)"/>
<path d="" fill="#FFFFFF" transform="translate(0,0)"/>
<path d="" fill="#FFFFFF" transform="translate(0,0)"/>
<path d="" fill="#FFFFFF" transform="translate(0,0)"/>
<path d="" fill="#FFFFFF" transform="translate(0,0)"/>
<path d="" fill="#FFFFFF" transform="translate(0,0)"/>
<path d="" fill="#FFFFFF" transform="translate(0,0)"/>
<path d="" fill="#FFFFFF" transform="translate(0,0)"/>
<path d="" fill="#FFFFFF" transform="translate(0,0)"/>
<path d="" fill="#FFFFFF" transform="translate(0,0)"/>
<path d="" fill="#FFFFFF" transform="translate(0,0)"/>
<path d="" fill="#FFFFFF" transform="translate(0,0)"/>
<path d="" fill="#FFFFFF" transform="translate(0,0)"/>
<path d="" fill="#FFFFFF" transform="translate(0,0)"/>
<path d="" fill="#FFFFFF" transform="translate(0,0)"/>
<path d="" fill="#FFFFFF" transform="translate(0,0)"/>
<path d="" fill="#FFFFFF" transform="translate(0,0)"/>
<path d="" fill="#FFFFFF" transform="translate(0,0)"/>
<path d="" fill="#FFFFFF" transform="translate(0,0)"/>
<path d="" fill="#FFFFFF" transform="translate(0,0)"/>
<path d="" fill="#FFFFFF" transform="translate(0,0)"/>
<path d="" fill="#FFFFFF" transform="translate(0,0)"/>
<path d="" fill="#FFFFFF" transform="translate(0,0)"/>
<path d="" fill="#FFFFFF" transform="translate(0,0)"/>
<path d="" fill="#FFFFFF" transform="translate(0,0)"/>
<path d="" fill="#FFFFFF" transform="translate(0,0)"/>
<path d="" fill="#FFFFFF" transform="translate(0,0)"/>
<path d="" fill="#FFFFFF" transform="translate(0,0)"/>
<path d="" fill="#FFFFFF" transform="translate(0,0)"/>
<path d="" fill="#FFFFFF" transform="translate(0,0)"/>
<path d="" fill="#FFFFFF" transform="translate(0,0)"/>
<path d="" fill="#FFFFFF" transform="translate(0,0)"/>
<path d="" fill="#FFFFFF" transform="translate(0,0)"/>
<path d="" fill="#FFFFFF" transform="translate(0,0)"/>
<path d="" fill="#FFFFFF" transform="translate(0,0)"/>
<path d="" fill="#FFFFFF" transform="translate(0,0)"/>
<path d="" fill="#FFFFFF" transform="translate(0,0)"/>
<path d="" fill="#FFFFFF" transform="translate(0,0)"/>
<path d="" fill="#FFFFFF" transform="translate(0,0)"/>
<path d="" fill="#FFFFFF" transform="translate(0,0)"/>
<path d="" fill="#FFFFFF" transform="translate(0,0)"/>
<path d="" fill="#FFFFFF" transform="translate(0,0)"/>
<path d="" fill="#FFFFFF" transform="translate(0,0)"/>
<path d="" fill="#FFFFFF" transform="translate(0,0)"/>
<path d="" fill="#FFFFFF" transform="translate(0,0)"/>
<path d="" fill="#FFFFFF" transform="translate(0,0)"/>
<path d="" fill="#FFFFFF" transform="translate(0,0)"/>
<path d="" fill="#FFFFFF" transform="translate(0,0)"/>
<path d="" fill="#FFFFFF" transform="translate(0,0)"/>
<path d="" fill="#FFFFFF" transform="translate(0,0)"/>
<path d="" fill="#FFFFFF" transform="translate(0,0)"/>
<path d="" fill="#FFFFFF" transform="translate(0,0)"/>
<path d="" fill="#FFFFFF" transform="translate(0,0)"/>
<path d="" fill="#FFFFFF" transform="translate(0,0)"/>
<path d="" fill="#FFFFFF" transform="translate(0,0)"/>
<path d="" fill="#FFFFFF" transform="translate(0,0)"/>
<path d="" fill="#FFFFFF" transform="translate(0,0)"/>
<path d="" fill="#FFFFFF" transform="translate(0,0)"/>
<path d="" fill="#FFFFFF" transform="translate(0,0)"/>
<path d="" fill="#FFFFFF" transform="translate(0,0)"/>
<path d="" fill="#FFFFFF" transform="translate(0,0)"/>
<path d="" fill="#FFFFFF" transform="translate(0,0)"/>
<path d="" fill="#FFFFFF" transform="translate(0,0)"/>
<path d="" fill="#FFFFFF" transform="translate(0,0)"/>
<path d="" fill="#FFFFFF" transform="translate(0,0)"/>
<path d="" fill="#FFFFFF" transform="translate(0,0)"/>
<path d="" fill="#FFFFFF" transform="translate(0,0)"/>
<path d="" fill="#FFFFFF" transform="translate(0,0)"/>
<path d="" fill="#FFFFFF" transform="translate(0,0)"/>
</svg>
