<?xml version="1.0" encoding="UTF-8"?>
<svg version="1.1" xmlns="http://www.w3.org/2000/svg" width="268" height="259">
<path d="M0 0 C33 0 66 0 100 0 C100 4.91822815 99.95960086 6.85336053 98.3125 11.09765625 C97.94769531 12.05269043 97.58289063 13.00772461 97.20703125 13.99169922 C96.80871094 15.00506348 96.41039062 16.01842773 96 17.0625 C95.38705078 18.65989014 95.38705078 18.65989014 94.76171875 20.28955078 C93.51698573 23.52999932 92.25983035 26.76539563 91 30 C89.6609474 33.45615362 88.32863046 36.91482814 87 40.375 C86.67999023 41.20104736 86.35998047 42.02709473 86.03027344 42.87817383 C84.10695409 47.8989541 82.32980494 52.95006811 80.640625 58.0546875 C80.24230469 59.24916504 79.84398437 60.44364258 79.43359375 61.67431641 C78.65602216 64.02339098 77.89253487 66.37718355 77.14453125 68.73583984 C76.61666016 70.328396 76.61666016 70.328396 76.078125 71.953125 C75.77293945 72.90348633 75.46775391 73.85384766 75.15332031 74.83300781 C74 77 74 77 71.87011719 77.81542969 C71.25297852 77.87633789 70.63583984 77.93724609 70 78 C69.60321045 77.57291748 69.2064209 77.14583496 68.79760742 76.70581055 C61.43888313 68.79499613 54.03298835 60.97368952 46.34765625 53.37890625 C43.70090225 50.69692091 41.25221214 47.89288186 38.80859375 45.02734375 C35.82471996 41.68256946 32.59380268 38.58664843 29.40625 35.4375 C26.75040247 32.74716094 24.29864568 29.93426475 21.84375 27.0625 C18.85261223 23.71648147 15.62155503 20.61399813 12.4296875 17.4609375 C9.64619583 14.64164529 7.04837931 11.70336732 4.47265625 8.6953125 C2.73937606 6.69997138 0.90632672 4.83007366 -1 3 C-0.67 2.01 -0.34 1.02 0 0 Z " fill="#673E6E" transform="translate(65,117)"/>
<path d="M0 0 C13.69567515 0.03141435 27.37422621 0.60984119 41.05834961 1.1328125 C43.6397203 1.22942141 46.22110045 1.32577768 48.80249023 1.421875 C55.07538886 1.65594049 61.34816329 1.89312821 67.62084961 2.1328125 C67.62084961 6.1328125 67.62084961 6.1328125 66.37084961 7.80859375 C65.50459961 8.61876953 65.50459961 8.61876953 64.62084961 9.4453125 C64.06397461 9.97769531 63.50709961 10.51007812 62.93334961 11.05859375 C61.5884173 12.26494351 60.2363933 13.46364615 58.86694336 14.64208984 C53.89002847 18.93358324 49.22141956 23.44238767 44.62084961 28.1328125 C40.09106248 32.75107203 35.49125477 37.1647853 30.58959961 41.38671875 C27.28329758 44.31909376 24.21363074 47.47862017 21.12084961 50.6328125 C16.63672266 55.16568598 12.14975885 59.60121692 7.26147461 63.703125 C5.50142853 65.23687944 3.91512752 66.87773577 2.30834961 68.5703125 C-0.37915039 71.1328125 -0.37915039 71.1328125 -3.37915039 71.1328125 C-3.40227584 62.02322085 -3.42006651 52.91363924 -3.43096256 43.8040247 C-3.43619095 39.57449879 -3.44328779 35.3449929 -3.45458984 31.11547852 C-3.4654203 27.03712707 -3.47142756 22.95879493 -3.47402763 18.88043022 C-3.4758816 17.32103611 -3.47950166 15.7616431 -3.48488045 14.20225716 C-3.49209301 12.02552088 -3.49314124 9.84886536 -3.49267578 7.67211914 C-3.49489639 6.43079727 -3.497117 5.1894754 -3.49940491 3.91053772 C-3.33817566 0.18634865 -3.33817566 0.18634865 0 0 Z " fill="#653C6D" transform="translate(173.379150390625,38.8671875)"/>
<path d="M0 0 C0 23.1 0 46.2 0 70 C-21.78 70 -43.56 70 -66 70 C-66 66.32752409 -65.3235271 65.91850005 -62.8515625 63.33984375 C-62.1805249 62.63335693 -61.5094873 61.92687012 -60.81811523 61.19897461 C-60.09438721 60.45268799 -59.37065918 59.70640137 -58.625 58.9375 C-57.89418213 58.17252197 -57.16336426 57.40754395 -56.41040039 56.61938477 C-51.71042975 51.71599263 -46.93245122 46.89912967 -42.09765625 42.12890625 C-39.50651545 39.49916373 -37.10975885 36.73394345 -34.7109375 33.9296875 C-32.32689376 31.24083452 -29.77183972 28.74522455 -27.1875 26.25 C-24.65399969 23.64411397 -22.28809695 20.91829617 -19.90429688 18.17578125 C-16.74325037 14.56408299 -13.50724945 11.02487916 -10.25 7.5 C-9.59128906 6.77296875 -8.93257812 6.0459375 -8.25390625 5.296875 C-7.61839844 4.61109375 -6.98289063 3.9253125 -6.328125 3.21875 C-5.47589355 2.2896582 -5.47589355 2.2896582 -4.60644531 1.34179688 C-3 0 -3 0 0 0 Z " fill="#653C6D" transform="translate(167,44)"/>
<path d="M0 0 C0.66 0 1.32 0 2 0 C2.33 35.64 2.66 71.28 3 108 C-0.7345028 107.25309944 -2.63331894 106.87038708 -5.75 105.1796875 C-6.43521729 104.81222412 -7.12043457 104.44476074 -7.82641602 104.06616211 C-8.90234009 103.47653687 -8.90234009 103.47653687 -10 102.875 C-10.74241943 102.47482666 -11.48483887 102.07465332 -12.24975586 101.66235352 C-13.7667943 100.84391055 -15.28234564 100.02270505 -16.79638672 99.19873047 C-18.86205501 98.07503987 -20.9317931 96.95940764 -23.00390625 95.84765625 C-26.00551502 94.23713458 -29.0037937 92.6205568 -32 91 C-31.47785546 83.94763081 -29.3875265 77.97277362 -26.87890625 71.390625 C-26.46288147 70.2775145 -26.04685669 69.16440399 -25.6182251 68.01756287 C-24.27407004 64.42541304 -22.91831694 60.83776233 -21.5625 57.25 C-20.18476315 53.57675637 -18.81008917 49.90237747 -17.43583679 46.22782898 C-16.53402078 43.81660452 -15.63128701 41.4057231 -14.72761536 38.99519348 C-10.9115547 28.80472175 -7.22118283 18.57513028 -3.62915039 8.30371094 C-3.28360107 7.32047852 -2.93805176 6.33724609 -2.58203125 5.32421875 C-2.29561768 4.50010498 -2.0092041 3.67599121 -1.71411133 2.8269043 C-1 1 -1 1 0 0 Z " fill="#623C6A" transform="translate(165,130)"/>
<path d="M0 0 C4.59944286 0.13116282 7.12742456 0.81944749 10.36328125 4.09375 C11.56535891 5.56552458 12.73369024 7.06563506 13.86328125 8.59375 C14.93683681 9.83146575 16.02025033 11.06069881 17.11328125 12.28125 C17.67402344 12.93351562 18.23476562 13.58578125 18.8125 14.2578125 C21.46205569 17.27578261 24.19402258 20.21281448 26.92578125 23.15625 C27.96259429 24.28092311 28.9990623 25.4059144 30.03515625 26.53125 C31.67837313 28.31593588 33.3315985 30.08599587 35.00390625 31.84375 C36.67578125 33.65625 36.67578125 33.65625 38.86328125 36.59375 C38.12334979 42.64841759 33.55152677 47.64497796 29.203125 51.6171875 C18.91570976 58.84824281 1.75734443 55.5052876 -10.13671875 54.59375 C-10.16198523 47.06405348 -10.17955016 39.5343678 -10.19165039 32.00463867 C-10.19669245 29.44083243 -10.20352589 26.87702909 -10.2121582 24.31323242 C-10.22422939 20.63719979 -10.22994817 16.96120502 -10.234375 13.28515625 C-10.23953629 12.13100723 -10.24469757 10.97685822 -10.25001526 9.78773499 C-10.25009079 8.72671066 -10.25016632 7.66568634 -10.25024414 6.57250977 C-10.25246475 5.63319107 -10.25468536 4.69387238 -10.25697327 3.72608948 C-9.96899299 -1.38034419 -4.03199868 0.06074574 0 0 Z " fill="#653B6C" transform="translate(70.13671875,59.40625)"/>
<path d="M0 0 C1.18335938 0.34804688 1.18335938 0.34804688 2.390625 0.703125 C3.18984375 0.92484375 3.9890625 1.1465625 4.8125 1.375 C5.41578125 1.56578125 6.0190625 1.7565625 6.640625 1.953125 C6.970625 3.273125 7.300625 4.593125 7.640625 5.953125 C7.00560059 6.32598633 6.37057617 6.69884766 5.71630859 7.08300781 C2.81501531 8.78790786 -0.08468958 10.49549185 -2.984375 12.203125 C-3.98339844 12.78964844 -4.98242188 13.37617187 -6.01171875 13.98046875 C-12.02585311 17.50667283 -12.02585311 17.50667283 -17.8203125 21.375 C-20.359375 22.953125 -20.359375 22.953125 -24.359375 22.953125 C-22.96636785 19.76661021 -21.35984944 17.7661079 -18.8046875 15.421875 C-17.75861328 14.45314453 -17.75861328 14.45314453 -16.69140625 13.46484375 C-15.96308594 12.80097656 -15.23476562 12.13710937 -14.484375 11.453125 C-13.04899852 10.13072985 -11.61408866 8.80782801 -10.1796875 7.484375 C-9.16938477 6.56543457 -9.16938477 6.56543457 -8.13867188 5.62792969 C-6.22177483 3.87644467 -6.22177483 3.87644467 -4.1484375 1.4375 C-2.359375 -0.046875 -2.359375 -0.046875 0 0 Z " fill="#603D66" transform="translate(239.359375,52.046875)"/>
<path d="M0 0 C0.99 0 1.98 0 3 0 C3 23.1 3 46.2 3 70 C-18.78 70 -40.56 70 -63 70 C-63 69.67 -63 69.34 -63 69 C-41.88 69 -20.76 69 1 69 C0.67 47.22 0.34 25.44 0 3 C-0.66 3.99 -1.32 4.98 -2 6 C-2.66 6 -3.32 6 -4 6 C-2.84826645 3.53199953 -1.95216435 1.95216435 0 0 Z " fill="#533658" transform="translate(164,44)"/>
<path d="M0 0 C0.99 0.33 1.98 0.66 3 1 C3.02685412 3.31243792 3.04632841 5.6249627 3.0625 7.9375 C3.07410156 9.22527344 3.08570312 10.51304688 3.09765625 11.83984375 C3 15 3 15 2 16 C-0.86267567 16.07325168 -3.700719 16.09238205 -6.5625 16.0625 C-7.36880859 16.05798828 -8.17511719 16.05347656 -9.00585938 16.04882812 C-11.00393756 16.03700518 -13.00197783 16.01906914 -15 16 C-14.16643333 11.5734936 -12.1782157 10.19334052 -8.625 7.4375 C-4.11659188 3.9371017 -4.11659188 3.9371017 0 0 Z " fill="#633D6A" transform="translate(54,64)"/>
<path d="M0 0 C2.00720923 0.28674418 4.0085944 0.61866701 6 1 C4.68 1.33 3.36 1.66 2 2 C2 23.78 2 45.56 2 68 C2.495 67.01 2.495 67.01 3 66 C3.99 66.33 4.98 66.66 6 67 C4.1875 69 4.1875 69 2 71 C1.01 71 0.02 71 -1 71 C-1.02312545 61.89040835 -1.04091612 52.78082674 -1.05181217 43.6712122 C-1.05704056 39.44168629 -1.0641374 35.2121804 -1.07543945 30.98266602 C-1.08626991 26.90431457 -1.09227717 22.82598243 -1.09487724 18.74761772 C-1.09673121 17.18822361 -1.10035127 15.6288306 -1.10573006 14.06944466 C-1.11294262 11.89270838 -1.11399085 9.71605286 -1.11352539 7.53930664 C-1.115746 6.29798477 -1.11796661 5.0566629 -1.12025452 3.77772522 C-1 1 -1 1 0 0 Z " fill="#55315B" transform="translate(171,39)"/>
<path d="M0 0 C0.66 0 1.32 0 2 0 C2 16.83 2 33.66 2 51 C17.84 51.495 17.84 51.495 34 52 C34 52.33 34 52.66 34 53 C22.78 53 11.56 53 0 53 C0 35.51 0 18.02 0 0 Z " fill="#533459" transform="translate(60,61)"/>
<path d="M0 0 C3.93102671 2.24630098 6.35085105 4.26295462 8.9375 8 C11.81621083 12.08640218 14.55992843 13.77996421 19 16 C21.18700941 18.18700941 21.3802485 19.07831434 22 22 C22.33 22.99 22.66 23.98 23 25 C23.66 25.33 24.32 25.66 25 26 C21.60120323 25.42546455 20.08452885 24.41210549 17.79296875 21.8671875 C17.20580078 21.22523438 16.61863281 20.58328125 16.01367188 19.921875 C15.41103516 19.24640625 14.80839844 18.5709375 14.1875 17.875 C12.99478479 16.55872105 11.80077603 15.24361305 10.60546875 13.9296875 C10.01813965 13.27838867 9.43081055 12.62708984 8.82568359 11.95605469 C6.41551906 9.37378159 3.86480791 6.95225974 1.27856445 4.54736328 C0 3 0 3 0 0 Z " fill="#533858" transform="translate(113,169)"/>
<path d="M0 0 C1.32 0.33 2.64 0.66 4 1 C4 1.66 4 2.32 4 3 C4.60199219 3.26554688 5.20398438 3.53109375 5.82421875 3.8046875 C8.08014821 5.04403115 9.20943611 6.13849432 10.8125 8.125 C11.31652344 8.73730469 11.82054688 9.34960938 12.33984375 9.98046875 C13.16162109 10.98013672 13.16162109 10.98013672 14 12 C15.28671492 13.48347616 16.57833784 14.96271051 17.875 16.4375 C18.47054687 17.11683594 19.06609375 17.79617187 19.6796875 18.49609375 C20.33324219 19.24052734 20.33324219 19.24052734 21 20 C20.67 20.66 20.34 21.32 20 22 C17.40825695 19.4667918 14.82820431 16.92198038 12.25 14.375 C11.52039063 13.66214844 10.79078125 12.94929687 10.0390625 12.21484375 C6.15645714 8.3675348 2.81329596 4.69376221 0 0 Z " fill="#543C5A" transform="translate(88,144)"/>
<path d="M0 0 C0 0.33 0 0.66 0 1 C-10.30660383 2.32378398 -20.63223764 2.09139066 -31 2 C-27.53400367 -4.93199266 -6.97731813 -0.45806543 0 0 Z " fill="#5A3D62" transform="translate(203,40)"/>
<path d="M0 0 C4.455 0.99 4.455 0.99 9 2 C9.33 3.32 9.66 4.64 10 6 C7 8 7 8 4.4375 7.5625 C3.633125 7.376875 2.82875 7.19125 2 7 C1.01 7.495 1.01 7.495 0 8 C-0.33 7.01 -0.66 6.02 -1 5 C-0.34 4.01 0.32 3.02 1 2 C0.67 1.34 0.34 0.68 0 0 Z " fill="#6C4773" transform="translate(237,52)"/>
<path d="M0 0 C0.33 0.66 0.66 1.32 1 2 C-7.82342375 14.15978085 -7.82342375 14.15978085 -14 18 C-14.99 17.67 -15.98 17.34 -17 17 C-11.39 11.39 -5.78 5.78 0 0 Z " fill="#5B3D5E" transform="translate(128,83)"/>
<path d="M0 0 C5.28 0.33 10.56 0.66 16 1 C16 1.33 16 1.66 16 2 C11.38 2.33 6.76 2.66 2 3 C4.475 4.98 4.475 4.98 7 7 C8.78798992 8.9248484 10.36184222 10.94060165 12 13 C9 13 9 13 6.51953125 10.8125 C5.62621094 9.884375 4.73289062 8.95625 3.8125 8 C2.91144531 7.071875 2.01039062 6.14375 1.08203125 5.1875 C0.39496094 4.465625 -0.29210937 3.74375 -1 3 C-0.67 2.01 -0.34 1.02 0 0 Z " fill="#543858" transform="translate(65,117)"/>
<path d="M0 0 C0.66 0.33 1.32 0.66 2 1 C-0.25858133 3.34546698 -2.53376648 5.67412027 -4.8125 8 C-5.45509766 8.66773437 -6.09769531 9.33546875 -6.75976562 10.0234375 C-7.69272461 10.97089844 -7.69272461 10.97089844 -8.64453125 11.9375 C-9.21534424 12.52402344 -9.78615723 13.11054687 -10.37426758 13.71484375 C-12 15 -12 15 -15 15 C-14.67 14.01 -14.34 13.02 -14 12 C-13.01 12 -12.02 12 -11 12 C-10.67 11.01 -10.34 10.02 -10 9 C-9.34 9 -8.68 9 -8 9 C-8 8.34 -8 7.68 -8 7 C-7.34 7 -6.68 7 -6 7 C-5.7525 6.401875 -5.505 5.80375 -5.25 5.1875 C-3.83629988 2.71352479 -2.34944617 1.56629745 0 0 Z " fill="#543A5B" transform="translate(202,79)"/>
<path d="M0 0 C0.87840996 3.09720845 0.99435406 4.90645403 0 8 C-0.66 8 -1.32 8 -2 8 C-2.11320856 13.08303686 -2.11320856 13.08303686 -1 18 C-2.32 17.67 -3.64 17.34 -5 17 C-4.53444296 10.59859065 -2.85288164 5.73230171 0 0 Z " fill="#523B5A" transform="translate(138,204)"/>
<path d="M0 0 C0.556875 0.391875 1.11375 0.78375 1.6875 1.1875 C0.61320402 2.03245189 -0.47239202 2.86304858 -1.5625 3.6875 C-2.46742188 4.38359375 -2.46742188 4.38359375 -3.390625 5.09375 C-5.3125 6.1875 -5.3125 6.1875 -9.3125 6.1875 C-8.2566902 3.40400144 -7.30731748 2.18340854 -4.9375 0.3125 C-2.3125 -0.8125 -2.3125 -0.8125 0 0 Z " fill="#53385C" transform="translate(224.3125,68.8125)"/>
<path d="M0 0 C1.65 0 3.3 0 5 0 C6 3 7 6 8 9 C8.66 9.33 9.32 9.66 10 10 C6.4628562 9.43867066 5.00738321 8.30442253 2.75 5.5625 C1.96882812 4.63630859 1.96882812 4.63630859 1.171875 3.69140625 C0 2 0 2 0 0 Z " fill="#5A3B5F" transform="translate(128,185)"/>
<path d="M0 0 C1.32 0.66 2.64 1.32 4 2 C0.4912812 5.09592835 -2.49197399 6.74194623 -7 8 C-7 7.34 -7 6.68 -7 6 C-5.46875 4.4921875 -5.46875 4.4921875 -3.5 2.875 C-2.8503125 2.33617187 -2.200625 1.79734375 -1.53125 1.2421875 C-1.0259375 0.83226562 -0.520625 0.42234375 0 0 Z " fill="#5C3B61" transform="translate(238,58)"/>
<path d="M0 0 C0.33 0.99 0.66 1.98 1 3 C-1.64 5.64 -4.28 8.28 -7 11 C-7 5 -7 5 -5 3 C-3.34738161 1.97695052 -1.68208635 0.97383946 0 0 Z " fill="#57375C" transform="translate(185,94)"/>
<path d="M0 0 C0.66 0.33 1.32 0.66 2 1 C1.01 2.485 1.01 2.485 0 4 C4.29 4.33 8.58 4.66 13 5 C13 5.33 13 5.66 13 6 C7.39 6 1.78 6 -4 6 C-3 2 -3 2 0 0 Z " fill="#4F3656" transform="translate(43,74)"/>
<path d="M0 0 C3.12857014 1.3881735 5.28189174 3.01101878 7.6875 5.4375 C8.28949219 6.03433594 8.89148438 6.63117188 9.51171875 7.24609375 C11 9 11 9 12 12 C11.01 12.495 11.01 12.495 10 13 C8.51851668 11.21024844 7.03988094 9.41813943 5.5625 7.625 C4.73878906 6.62726563 3.91507812 5.62953125 3.06640625 4.6015625 C1 2 1 2 0 0 Z " fill="#533C5A" transform="translate(83,70)"/>
<path d="M0 0 C2.16874252 0.50603992 3.99967627 0.99983813 6 2 C7.0064275 3.66279327 8.00585407 5.32983484 9 7 C10.58245275 8.75149165 10.58245275 8.75149165 12 10 C11.67 10.66 11.34 11.32 11 12 C9.16364422 10.19047409 7.33083792 8.37759362 5.5 6.5625 C4.97535156 6.04623047 4.45070313 5.52996094 3.91015625 4.99804688 C2.58775448 3.68423213 1.29164432 2.34406495 0 1 C0 0.67 0 0.34 0 0 Z " fill="#543B58" transform="translate(76,132)"/>
<path d="M0 0 C0.66 0.33 1.32 0.66 2 1 C-1.3 4.3 -4.6 7.6 -8 11 C-8.66 10.67 -9.32 10.34 -10 10 C-9.67 9.01 -9.34 8.02 -9 7 C-8.01 6.67 -7.02 6.34 -6 6 C-4.29319053 4.37446717 -2.62339805 2.70884005 -1 1 C-0.67 0.67 -0.34 0.34 0 0 Z " fill="#563B5A" transform="translate(226,56)"/>
<path d="M0 0 C1.67542976 0.28604898 3.34385343 0.61781233 5 1 C5 1.99 5 2.98 5 4 C3.35 4.33 1.7 4.66 0 5 C-0.5625 3.0625 -0.5625 3.0625 -1 1 C-0.67 0.67 -0.34 0.34 0 0 Z " fill="#5A3B5F" transform="translate(242,54)"/>
<path d="M0 0 C0.66 0.33 1.32 0.66 2 1 C-0.64 3.97 -3.28 6.94 -6 10 C-6.99 9.67 -7.98 9.34 -9 9 C-6.03 6.03 -3.06 3.06 0 0 Z " fill="#503B55" transform="translate(155,54)"/>
<path d="M0 0 C0 3 0 3 -2.25 5.5625 C-4.55902983 7.60914008 -6.26579189 8.73221547 -9 10 C-8.06409496 8.8944811 -7.12620142 7.79064547 -6.1875 6.6875 C-5.66542969 6.07261719 -5.14335937 5.45773438 -4.60546875 4.82421875 C-3.12827531 3.14575321 -1.59960869 1.56117966 0 0 Z " fill="#543C5A" transform="translate(139,71)"/>
<path d="M0 0 C-1.12589193 3.3776758 -2.31943052 4.71363192 -5 7 C-5.99 7 -6.98 7 -8 7 C-8 6.34 -8 5.68 -8 5 C-2.52380952 0 -2.52380952 0 0 0 Z " fill="#563B5C" transform="translate(56,64)"/>
<path d="M0 0 C7.50769231 -0.36923077 7.50769231 -0.36923077 10 1.5 C10.495 2.2425 10.495 2.2425 11 3 C10.67 3.66 10.34 4.32 10 5 C6.66666667 3.33333333 3.33333333 1.66666667 0 0 Z " fill="#5A415D" transform="translate(68,60)"/>
<path d="M0 0 C1.32 0.33 2.64 0.66 4 1 C2.37660195 2.70884005 0.70680947 4.37446717 -1 6 C-1.66 6 -2.32 6 -3 6 C-2.67 4.68 -2.34 3.36 -2 2 C-1.34 2 -0.68 2 0 2 C0 1.34 0 0.68 0 0 Z " fill="#5C4161" transform="translate(235,46)"/>
<path d="M0 0 C0.33 0.66 0.66 1.32 1 2 C0.06421005 4.35981813 -0.93347808 6.69631264 -2 9 C-2.66 9 -3.32 9 -4 9 C-3.35455571 5.51460083 -1.89865603 2.97180943 0 0 Z " fill="#563C5D" transform="translate(141,183)"/>
<path d="" fill="#FFFFFF" transform="translate(0,0)"/>
<path d="" fill="#FFFFFF" transform="translate(0,0)"/>
<path d="" fill="#FFFFFF" transform="translate(0,0)"/>
<path d="" fill="#FFFFFF" transform="translate(0,0)"/>
<path d="" fill="#FFFFFF" transform="translate(0,0)"/>
<path d="" fill="#FFFFFF" transform="translate(0,0)"/>
<path d="" fill="#FFFFFF" transform="translate(0,0)"/>
<path d="" fill="#FFFFFF" transform="translate(0,0)"/>
<path d="" fill="#FFFFFF" transform="translate(0,0)"/>
<path d="" fill="#FFFFFF" transform="translate(0,0)"/>
<path d="" fill="#FFFFFF" transform="translate(0,0)"/>
<path d="" fill="#FFFFFF" transform="translate(0,0)"/>
<path d="" fill="#FFFFFF" transform="translate(0,0)"/>
<path d="" fill="#FFFFFF" transform="translate(0,0)"/>
<path d="" fill="#FFFFFF" transform="translate(0,0)"/>
<path d="" fill="#FFFFFF" transform="translate(0,0)"/>
<path d="" fill="#FFFFFF" transform="translate(0,0)"/>
<path d="" fill="#FFFFFF" transform="translate(0,0)"/>
<path d="" fill="#FFFFFF" transform="translate(0,0)"/>
<path d="" fill="#FFFFFF" transform="translate(0,0)"/>
<path d="" fill="#FFFFFF" transform="translate(0,0)"/>
<path d="" fill="#FFFFFF" transform="translate(0,0)"/>
<path d="" fill="#FFFFFF" transform="translate(0,0)"/>
<path d="" fill="#FFFFFF" transform="translate(0,0)"/>
<path d="" fill="#FFFFFF" transform="translate(0,0)"/>
<path d="" fill="#FFFFFF" transform="translate(0,0)"/>
<path d="" fill="#FFFFFF" transform="translate(0,0)"/>
<path d="" fill="#FFFFFF" transform="translate(0,0)"/>
<path d="" fill="#FFFFFF" transform="translate(0,0)"/>
<path d="" fill="#FFFFFF" transform="translate(0,0)"/>
<path d="" fill="#FFFFFF" transform="translate(0,0)"/>
<path d="" fill="#FFFFFF" transform="translate(0,0)"/>
<path d="" fill="#FFFFFF" transform="translate(0,0)"/>
<path d="" fill="#FFFFFF" transform="translate(0,0)"/>
<path d="" fill="#FFFFFF" transform="translate(0,0)"/>
<path d="" fill="#FFFFFF" transform="translate(0,0)"/>
<path d="" fill="#FFFFFF" transform="translate(0,0)"/>
<path d="" fill="#FFFFFF" transform="translate(0,0)"/>
<path d="" fill="#FFFFFF" transform="translate(0,0)"/>
<path d="" fill="#FFFFFF" transform="translate(0,0)"/>
<path d="" fill="#FFFFFF" transform="translate(0,0)"/>
<path d="" fill="#FFFFFF" transform="translate(0,0)"/>
<path d="" fill="#FFFFFF" transform="translate(0,0)"/>
<path d="" fill="#FFFFFF" transform="translate(0,0)"/>
<path d="" fill="#FFFFFF" transform="translate(0,0)"/>
<path d="" fill="#FFFFFF" transform="translate(0,0)"/>
<path d="" fill="#FFFFFF" transform="translate(0,0)"/>
<path d="" fill="#FFFFFF" transform="translate(0,0)"/>
<path d="" fill="#FFFFFF" transform="translate(0,0)"/>
<path d="" fill="#FFFFFF" transform="translate(0,0)"/>
<path d="" fill="#FFFFFF" transform="translate(0,0)"/>
<path d="" fill="#FFFFFF" transform="translate(0,0)"/>
<path d="" fill="#FFFFFF" transform="translate(0,0)"/>
<path d="" fill="#FFFFFF" transform="translate(0,0)"/>
<path d="" fill="#FFFFFF" transform="translate(0,0)"/>
<path d="" fill="#FFFFFF" transform="translate(0,0)"/>
</svg>
